<svg xmlns="http://www.w3.org/2000/svg" viewBox="0 0 327.96 131.94"><title>Ресурс 12</title><g id="Слой_2" data-name="Слой 2"><g id="_1" data-name="1"><path d="M30.08,37.76S-5.57,36.22.75,66.12,14,86.23,29.49,90.26s9.66,14.92,32.19-8.62S47,21.28,30.08,37.76Z" fill="#7ab929" fill-rule="evenodd"/><path d="M155.47,59.36s1.67-40.79-29-37-24.64,12.23-23.68,19.81-11,9.89-3.2,29.69C116.33,114.4,178.56,82.21,155.47,59.36Z" fill="#7ab929" fill-rule="evenodd"/><path d="M43.94,47.18c10.62,16.18,17.89,32.09,38.83,26s46.75-29.68,33.4-48.36-17.29-5-35.54-20.05C62.06-10.57,30.13,26.15,43.94,47.18Z" fill="#7ab929" fill-rule="evenodd"/><path d="M80.74,101.4c.59-8.09-2.58-15.13-12.06-12.66a62.34,62.34,0,0,1-12.49,1.85c-4.57,6.65-14,9.81-21.43,6.23a14.58,14.58,0,0,1-3.17-2.08c-4.47-3.86-9.3-4.29-13.44-4.66C10.93,89.44,5.67,89,7,72.83H7s-.15-.54-.4-1.36C5.46,67.65,2.47,57.72,3.94,49.35c1.51-8.66,7.69-15.64,25.22-12.66a21,21,0,0,1,8.79-5c2.92-10.84,12.66-22,22.21-27.53C71.47-2.33,84.52-2.47,93.4,12.71c13.07.2,20.22,4,23.22,9.27,22.4-4.93,50.11,13.31,37.84,38.56,19.35,41-38.23,40.67-41,20.88a24.09,24.09,0,0,1-4.05-.21,23.47,23.47,0,0,1-11-4.53l-.06,0c-6.69,4.67-9.07,15.21-8.26,25.09l-1.24.13c-1.31-10.4.69-21.1,7.66-26.8a27.71,27.71,0,0,1-2.6-3,47.59,47.59,0,0,1-17,1,38.88,38.88,0,0,1-6.44-1.38,14.31,14.31,0,0,0-.47,2.45A7.64,7.64,0,0,1,73,74a4.16,4.16,0,0,1,2.31,1.19,3.34,3.34,0,0,1,.61,3.41,3.08,3.08,0,0,1-2.48,2.32,3.26,3.26,0,0,1-2.62-.88,5.62,5.62,0,0,1-1.66-3.17A8.85,8.85,0,0,1,69,75.42c-3.09,1.08-6.67,4-9.28,9.33A34,34,0,0,1,57.92,88a55.84,55.84,0,0,0,10.51-1.84c5.66-1.47,9.74.33,12.21,3.86,2.22,3.17,3.11,7.74,2.66,12.56a28.56,28.56,0,0,1-1.14,5.74l-1.41-6.94Zm-25.81-11C45,90.34,42.13,83.76,41.33,76c-4.85,1-6.47-3.57-5-8.76,2-11.86-5.6-11.73-12.95-11.52-4,.11-3.57-.53-.53-2C28.14,51,34.1,50.3,38.62,53.1c6,3.7,4.14,13.58,4.58,19.89,7-2.32,6.27-11.87,4.07-16.39-.65-1.34-.72-1.3.57-.61a12.44,12.44,0,0,1,5.64,16.15c-1.44,3.08.62,4.41,3.48,3.84,2.64-.7,7.3-7,7.3-7C56.76,65.21,52,57.2,51.65,48.9,41.48,49,37.3,44.18,37.16,37.55a19.86,19.86,0,0,1,.51-4.7,20.15,20.15,0,0,0-8,4.74.5.5,0,0,1-.43.13c-16.94-3-22.86,3.61-24.29,11.79s1.51,17.9,2.64,21.65A8.24,8.24,0,0,1,8,72.91C6.76,88.05,11.6,88.48,18.24,89.07c4.29.38,9.29.83,14,4.9a13.57,13.57,0,0,0,2.95,1.93c7,3.39,15.26.67,19.74-5.49ZM46.88,85c2,2.06,5.14,3.17,9.8,3.08a32.39,32.39,0,0,0,2.12-3.75c2.84-5.85,6.83-8.9,10.22-10a15.11,15.11,0,0,1,.55-3A33.1,33.1,0,0,1,66.33,70C64,73.34,58.23,80,53.4,77.92a4.66,4.66,0,0,1-2.13-6.07,11.55,11.55,0,0,0-1-11.4c1.95,5.88-.87,12.84-6.75,15.05l-.15.06c.39,4,1.39,7.26,3.52,9.42ZM41.1,73.32a49.42,49.42,0,0,1-.21-6.21c.31-10.93-3.06-14.74-11.53-13.54-1.73.25-2.7.37.28.42,6.41.12,10.44,3.17,8.8,13.06-.31,1.91-.68,6.6,2.65,6.26Zm24.59-6.88c5.23-9.4,2-20.45-6.13-27.62a27.94,27.94,0,0,0-10-5.75c-3.51-1.1-5.39-1.7-9-.85,0,0-5.6,14.35,12.84,14.36a.5.5,0,0,1,.51.49c.24,8.49,3.9,15.48,11.75,19.37Zm1.89-18.81c3.34,6.82,4.79,13,.33,19.86a26,26,0,0,0,2.65,1.07c1.1-3.29,2.68-5.56,6.7-10.4.46-.56.89-1.11,1.3-1.66-3.12-2.07-5.88-5.43-8-10.39a.51.51,0,0,1,.83-.56,19.5,19.5,0,0,0,1.54,1.51c3.14,2.76,6.31,3.51,9.32,3a20.28,20.28,0,0,0,1.41-5.52,16.69,16.69,0,0,1-2.46-.45A6.62,6.62,0,0,1,78.66,43a1.39,1.39,0,0,1-.39-2c.47-.69,1.72-1.38,4-1.94.36-.09.7-.19,1-.3a19.1,19.1,0,0,0-.87-2.8,4.48,4.48,0,0,1-1.38-.06c-4.8-.94-9.91-9.39-12.38-13.47a22.22,22.22,0,0,0-1.26-2,.51.51,0,0,1,.54-.85c.05,0,11.74,5.11,16,14.7,2-.79,2.87-3.32,4.16-9.93a.51.51,0,0,1,1-.05c.22.58,4,11.22-3.65,14.62a23,23,0,0,1,.26,4.81A15.53,15.53,0,0,0,95,41.57a.5.5,0,0,1,.63.77,41.69,41.69,0,0,1-3.2,3.29c-2.79,2.55-5.24,4.48-8.67,5.18A16.71,16.71,0,0,1,81,55c4.31,2.05,9.68,1.14,9.68,1.14.66-5.27,3.1-9.24,8.54-15,1-10.69,7.55-16.36,15.06-18.59-3-4.92-9.34-7.44-21.91-7.58-1.23,0-9.3-21.56-31.72-8.66-9.23,5.31-16.51,14.82-20,24.83,3.61-.75,5.68-.18,9.2.92a29,29,0,0,1,10.35,6,31.15,31.15,0,0,1,7.36,9.57Zm2.48,27.48h0a8.25,8.25,0,0,0,.15,1.58,4.62,4.62,0,0,0,1.34,2.6,2.27,2.27,0,0,0,1.81.63A2.11,2.11,0,0,0,75,78.32a2.38,2.38,0,0,0-.39-2.43A3.16,3.16,0,0,0,72.82,75a6.78,6.78,0,0,0-2.77.11ZM78,58.8c-3.95,4.75-5.44,6.86-6.5,10,0,0,10.45,3.53,20.79.38-1.7-2.68-2.24-7.15-2-10.24A16.77,16.77,0,0,1,79.42,57c-.43.59-.89,1.18-1.39,1.77Zm1.85-4.19a16.65,16.65,0,0,0,1.9-3.44,12,12,0,0,1-9.11-3c1.84,3.44,7.21,6.45,7.21,6.45Zm3.86-11a17.7,17.7,0,0,0-.23-3.84q-.47.15-1,.28c-2,.49-3.07,1-3.41,1.52-.14.21-.05.44.21.67a5.68,5.68,0,0,0,2.13,1,15.79,15.79,0,0,0,2.28.42ZM82,34.94c-3.09-6.76-9.51-11.42-12.68-13.4l.21.34c2.39,4,7.35,12.15,11.71,13a3.48,3.48,0,0,0,.77.07Zm2.45.23a19.56,19.56,0,0,1,.83,2.65c4.79-2.54,4.18-8.24,3.45-11.35-1.34,5.64-2.2,7.87-4.28,8.7Zm1.11,9.53a19.38,19.38,0,0,1-1.34,4.9c3-.79,5-2.46,7.51-4.73.47-.43.93-.87,1.38-1.33a17.46,17.46,0,0,1-7.55,1.16ZM91.78,56c11.77-2.35,28.7-20.84,23-32.54-6.86,2.1-13.66,7.58-14.54,18a.51.51,0,0,1-.14.31C94.83,47.24,92.49,51,91.78,56Zm5,1.11a26,26,0,0,1-5.4,1.67c-.26,2.9.22,7.6,1.87,10.12,0,0,10.19-2.53,18.08-8,0,0-1.28-3.52.32-9.17a.5.5,0,0,1,1,0,14,14,0,0,0,1.73,6.64s8.59-6.93,12.83-14.44a.51.51,0,0,1,1,.15c3.64,11.54-4.62,25.15-13,17.22q-1,.82-2,1.58a7.48,7.48,0,0,0,2.27,2.41c3.65,2.48,10.26,2.86,20.52.9a.51.51,0,0,1,.52.77c-6.21,9.5-11.64,12.77-20.37,14.3,3,15.85,53.73,17.19,35.28-20.55a.51.51,0,0,1,0-.44C163.18,33.81,138,18.78,117.09,22.91a14.16,14.16,0,0,1,1.25,6.15c-.06,5.3-2.64,11.12-6.62,16.21a39.42,39.42,0,0,1-15,11.86ZM95,71.77a26.79,26.79,0,0,0,2.31,2.64c5.75-4.23,14.33-3,19.88-1.59l.09,0a.5.5,0,0,1,.24.67,16,16,0,0,0-1.64,6.68C123,79.68,129.07,76,135,67.45c-9.88,1.76-16.37,1.27-20.09-1.27a8.52,8.52,0,0,1-2.52-2.63c-5.21,3.81-11.06,6.15-17.38,8.23Zm17.19-11.39,1.38-1.18A10.15,10.15,0,0,1,112.08,55a10.84,10.84,0,0,0,.1,5.41ZM127,48.59c-3.59,5.34-6.54,8.12-11,12.1,6.95,6.34,12.33-7.28,11-12.1ZM109.58,80.21a23,23,0,0,0,3.82.2,12.88,12.88,0,0,1,1.21-5.75c-5.1-1.21-10.68-1.37-15.32,1.38A22.48,22.48,0,0,0,109.58,80.21Z" fill="#512c00" fill-rule="evenodd"/><path d="M187.13,19.34l10.43,22.34h-2.4l-3.49-7.34H182l-3.47,7.34H176l10.55-22.34ZM186.85,24,183,32.16h7.67L186.85,24Zm12,1.13h10.86V27h-4.39V41.68h-2.12V27h-4.36V25.16Zm27.7,11,1.79.94a9.78,9.78,0,0,1-2,2.78,8.21,8.21,0,0,1-2.6,1.61,9.17,9.17,0,0,1-3.28.55A7.94,7.94,0,0,1,214,39.44a8.89,8.89,0,0,1-2.29-6,8.78,8.78,0,0,1,1.94-5.59,7.93,7.93,0,0,1,6.57-3.12A8.2,8.2,0,0,1,227,28a8.9,8.9,0,0,1,1.83,5.64H213.94a6.67,6.67,0,0,0,1.85,4.7,5.92,5.92,0,0,0,4.41,1.84,7.18,7.18,0,0,0,2.47-.44,6.48,6.48,0,0,0,2-1.16,9.77,9.77,0,0,0,1.82-2.33Zm0-4.45A7,7,0,0,0,225.3,29a5.93,5.93,0,0,0-2.17-1.64,6.66,6.66,0,0,0-2.83-.62,6.11,6.11,0,0,0-4.21,1.56,7.06,7.06,0,0,0-1.95,3.42Zm20.26,9.93h-2.22l-5.58-12-5.49,12h-2.28l7.55-16.53h.38l7.65,16.53Zm5.33-10h2a14.76,14.76,0,0,1,3.79.38,4.45,4.45,0,0,1,2.36,1.68,5,5,0,0,1-.44,6.48,5.82,5.82,0,0,1-4.33,1.45H250V25.16h2.1v6.54Zm.08,2v6.22h2.45q4.33,0,4.33-3a3.43,3.43,0,0,0-.47-1.7A2.51,2.51,0,0,0,257.18,34a10.14,10.14,0,0,0-3.15-.33Zm26.44,2.55,1.79.94a9.79,9.79,0,0,1-2,2.78,8.22,8.22,0,0,1-2.6,1.61,9.17,9.17,0,0,1-3.28.55,7.94,7.94,0,0,1-6.34-2.65,8.89,8.89,0,0,1-2.29-6,8.78,8.78,0,0,1,1.94-5.59,7.93,7.93,0,0,1,6.57-3.12,8.2,8.2,0,0,1,6.77,3.2A8.9,8.9,0,0,1,281,33.59H266.07a6.67,6.67,0,0,0,1.85,4.7,5.92,5.92,0,0,0,4.41,1.84,7.18,7.18,0,0,0,2.47-.44,6.48,6.48,0,0,0,2-1.16,9.77,9.77,0,0,0,1.82-2.33Zm0-4.45A7,7,0,0,0,277.43,29a5.93,5.93,0,0,0-2.17-1.64,6.66,6.66,0,0,0-2.83-.62,6.11,6.11,0,0,0-4.21,1.56,7.06,7.06,0,0,0-1.94,3.42ZM180.4,61h1.12a3.14,3.14,0,0,0,2-.7,2.39,2.39,0,0,0,.9-2,2.72,2.72,0,0,0-.72-1.9,2.85,2.85,0,0,0-2.21-.79A5.75,5.75,0,0,0,178,56.94l-1.2-1.46a7.36,7.36,0,0,1,4.78-1.87A5.14,5.14,0,0,1,185,54.83,4,4,0,0,1,186.44,58a3.44,3.44,0,0,1-2.29,3.49,4.41,4.41,0,0,1,3,4.37A5.12,5.12,0,0,1,181.56,71a7.18,7.18,0,0,1-5.48-2.2l1.32-1.49a5.08,5.08,0,0,0,4,1.73,3.58,3.58,0,0,0,2.55-.87,3,3,0,0,0,.93-2.29,2.85,2.85,0,0,0-.93-2.22,3.18,3.18,0,0,0-2.2-.84H180.4V61Zm24.34,4.14,1.79.94a9.79,9.79,0,0,1-2,2.78,8.21,8.21,0,0,1-2.6,1.61,9.17,9.17,0,0,1-3.28.55,7.94,7.94,0,0,1-6.34-2.65,8.89,8.89,0,0,1-2.29-6,8.78,8.78,0,0,1,1.94-5.59,7.93,7.93,0,0,1,6.57-3.12,8.2,8.2,0,0,1,6.77,3.2,8.9,8.9,0,0,1,1.83,5.64H192.16a6.67,6.67,0,0,0,1.85,4.7A5.92,5.92,0,0,0,198.42,69a7.18,7.18,0,0,0,2.47-.44,6.47,6.47,0,0,0,2-1.16,9.77,9.77,0,0,0,1.82-2.33Zm0-4.45A7,7,0,0,0,203.52,58a5.93,5.93,0,0,0-2.17-1.64,6.67,6.67,0,0,0-2.83-.62,6.11,6.11,0,0,0-4.21,1.56,7.06,7.06,0,0,0-1.95,3.42ZM225,70.6h-2.23l-5.58-12-5.49,12h-2.28L217,54.08h.38L225,70.6Zm17.18-5.48,1.79.94a9.78,9.78,0,0,1-2,2.78,8.21,8.21,0,0,1-2.6,1.61,9.17,9.17,0,0,1-3.28.55,7.94,7.94,0,0,1-6.34-2.65,8.89,8.89,0,0,1-2.29-6,8.78,8.78,0,0,1,1.94-5.59A7.93,7.93,0,0,1,236,53.67a8.2,8.2,0,0,1,6.77,3.2,8.9,8.9,0,0,1,1.83,5.64H229.63a6.67,6.67,0,0,0,1.85,4.7A5.92,5.92,0,0,0,235.89,69a7.18,7.18,0,0,0,2.47-.44,6.47,6.47,0,0,0,2-1.16,9.76,9.76,0,0,0,1.82-2.33Zm0-4.45A7,7,0,0,0,241,58a5.93,5.93,0,0,0-2.17-1.64A6.67,6.67,0,0,0,236,55.7a6.11,6.11,0,0,0-4.21,1.56,7.06,7.06,0,0,0-1.95,3.42Zm-9.32-13.13a1.75,1.75,0,1,1-1.24.51,1.7,1.7,0,0,1,1.24-.51Zm6.19,0a1.75,1.75,0,1,1-1.24.51,1.7,1.7,0,0,1,1.24-.51Zm21.12,15.09h-9.65v8h-2.12V54.08h2.12v6.57h9.65V54.08h2.12V70.6h-2.12v-8Zm9-2h2A14.76,14.76,0,0,1,275,61a4.44,4.44,0,0,1,2.36,1.68,5,5,0,0,1-.44,6.48,5.82,5.82,0,0,1-4.33,1.45h-5.5V54.08h2.1v6.54Zm.08,2V68.8h2.45q4.33,0,4.33-3a3.43,3.43,0,0,0-.47-1.7,2.51,2.51,0,0,0-1.35-1.17,10.14,10.14,0,0,0-3.15-.33Zm12-8.5h2.12V70.6H281.3V54.08Zm4.79,0h2.55l4.39,6,4.34-6h2.54l-5.6,7.8,6.35,8.73H298.1l-5.06-7-5,7h-2.54l6.27-8.72-5.67-7.81ZM177.67,83h2.12v3a8.4,8.4,0,0,1,2.9-2.59,7.79,7.79,0,0,1,3.66-.86,8.18,8.18,0,0,1,6,2.53,8.34,8.34,0,0,1,2.51,6.09,8.51,8.51,0,0,1-2.48,6.18,8.37,8.37,0,0,1-9.62,1.72,9.18,9.18,0,0,1-3-2.45v8.9h-2.12V83Zm8.52,1.65a6.24,6.24,0,0,0-4.64,1.92,6.54,6.54,0,0,0-1.89,4.78,6.76,6.76,0,0,0,.84,3.37,6.13,6.13,0,0,0,2.41,2.38,6.68,6.68,0,0,0,3.31.88,6.25,6.25,0,0,0,3.22-.89,6.46,6.46,0,0,0,2.4-2.47,6.67,6.67,0,0,0,0-6.65,6.42,6.42,0,0,0-5.65-3.31ZM212.82,94l1.79.94a9.79,9.79,0,0,1-2,2.78,8.21,8.21,0,0,1-2.6,1.61,9.17,9.17,0,0,1-3.28.55,7.94,7.94,0,0,1-6.34-2.65,8.89,8.89,0,0,1-2.29-6A8.78,8.78,0,0,1,200,85.71a7.93,7.93,0,0,1,6.57-3.12,8.2,8.2,0,0,1,6.77,3.2,8.9,8.9,0,0,1,1.83,5.64H200.23a6.67,6.67,0,0,0,1.85,4.7A5.92,5.92,0,0,0,206.49,98a7.17,7.17,0,0,0,2.47-.44,6.47,6.47,0,0,0,2-1.16A9.77,9.77,0,0,0,212.82,94Zm0-4.45a7,7,0,0,0-1.24-2.72,5.92,5.92,0,0,0-2.17-1.64,6.66,6.66,0,0,0-2.83-.62,6.11,6.11,0,0,0-4.21,1.56,7.06,7.06,0,0,0-1.95,3.42Zm31,9.93H219.09V83h2.12V97.53h9.15V83h2.18V97.53h9.09V83h2.18V99.52ZM262.47,94l1.79.94a9.78,9.78,0,0,1-2,2.78,8.21,8.21,0,0,1-2.6,1.61,9.17,9.17,0,0,1-3.28.55A7.94,7.94,0,0,1,250,97.28a8.89,8.89,0,0,1-2.29-6,8.78,8.78,0,0,1,1.94-5.59,7.93,7.93,0,0,1,6.57-3.12,8.2,8.2,0,0,1,6.77,3.2,8.9,8.9,0,0,1,1.83,5.64H249.89a6.67,6.67,0,0,0,1.85,4.7A5.92,5.92,0,0,0,256.15,98a7.17,7.17,0,0,0,2.47-.44,6.47,6.47,0,0,0,2-1.16A9.76,9.76,0,0,0,262.47,94Zm0-4.45a7,7,0,0,0-1.24-2.72,5.93,5.93,0,0,0-2.17-1.64,6.66,6.66,0,0,0-2.83-.62A6.11,6.11,0,0,0,252,86.18a7.06,7.06,0,0,0-1.95,3.42Zm18,2h-9.65v8h-2.12V83h2.12v6.57h9.65V83h2.12V99.52h-2.12v-8Zm9-8.56V95.24L301.63,83h.17V99.52h-2.12V87.37L287.62,99.52h-.26V83Zm19.18,0V95.24L320.81,83H321V99.52h-2.12V87.37L306.8,99.52h-.26V83Zm-.28-6.66h2a3.23,3.23,0,0,0,1.39,1.19,4.94,4.94,0,0,0,2.07.4,4.69,4.69,0,0,0,2-.35,3.91,3.91,0,0,0,1.42-1.23h1.93a3.84,3.84,0,0,1-1.71,2.29,6.43,6.43,0,0,1-3.63.92,6.65,6.65,0,0,1-3.64-.9A3.93,3.93,0,0,1,308.37,76.34Z" fill="#537a1e" fill-rule="evenodd"/><path d="M187.78,19l10.9,23.37h-4l-3.49-7.34h-8.77L179,42.41h-4.09l11.23-23.79h1.47l.2.42ZM196.42,41l-9.57-20.52L177.16,41h.89l3.47-7.34h10.6L195.61,41Zm-9.57-15.24-2.7,5.72h5.39l-2.69-5.72Zm-4.49,6.13-.49,1h9.95l-5-10.55-4.5,9.52Zm16.47-7.42h-.72v3.28h4.36V42.41H206V27.72h4.39V24.44ZM209,25.88v.39h-4.39V41h-.67V26.27h-4.36v-.39Zm17.9,9.69,2.43,1.28-.33.64a12.39,12.39,0,0,1-1,1.65,9,9,0,0,1-1.19,1.33h0a9.15,9.15,0,0,1-1.34,1,8.8,8.8,0,0,1-1.49.74h0a8.83,8.83,0,0,1-1.68.45,11.18,11.18,0,0,1-1.85.15,10,10,0,0,1-3.89-.72,8,8,0,0,1-3-2.18,10.2,10.2,0,0,1-1.85-3,9.47,9.47,0,0,1-.62-3.42,9.53,9.53,0,0,1,2.1-6h0a8.72,8.72,0,0,1,3.13-2.55,9.23,9.23,0,0,1,4-.85,9.53,9.53,0,0,1,4.12.87,9,9,0,0,1,3.21,2.6h0a8.72,8.72,0,0,1,1.48,2.76,11,11,0,0,1,.51,3.32v.73H214.71a6.45,6.45,0,0,0,.4,1.62,5.52,5.52,0,0,0,1.2,1.85A5.27,5.27,0,0,0,218.06,39a5.52,5.52,0,0,0,2.14.4,6.5,6.5,0,0,0,2.22-.39,6.58,6.58,0,0,0,1-.46,5.07,5.07,0,0,0,.81-.57h0a5.9,5.9,0,0,0,.78-.84,13.49,13.49,0,0,0,.88-1.31l.35-.58.6.32Zm.47,1.88-.55-.29q-.31.48-.62.87a7.34,7.34,0,0,1-1,1.05,6.52,6.52,0,0,1-1,.73,8,8,0,0,1-3.93,1,6.94,6.94,0,0,1-2.69-.52,6.7,6.7,0,0,1-2.24-1.54,7,7,0,0,1-1.51-2.33,8.25,8.25,0,0,1-.54-2.86l0-.74h14.92a9.12,9.12,0,0,0-.41-2.15,7.29,7.29,0,0,0-1.24-2.31h0a7.54,7.54,0,0,0-2.7-2.19,8.12,8.12,0,0,0-3.51-.73,7.81,7.81,0,0,0-3.39.71,7.29,7.29,0,0,0-2.61,2.13h0a8,8,0,0,0-1.78,5.15,8,8,0,0,0,.52,2.9,8.77,8.77,0,0,0,1.59,2.6,6.55,6.55,0,0,0,2.46,1.79,8.61,8.61,0,0,0,3.34.6,9.8,9.8,0,0,0,1.61-.13,7.22,7.22,0,0,0,2.65-1,7.75,7.75,0,0,0,1.13-.85h0a7.54,7.54,0,0,0,1-1.12q.28-.39.55-.83ZM225.57,31q-.1-.27-.21-.51a4.92,4.92,0,0,0-.63-1,4.72,4.72,0,0,0-.83-.79,5.87,5.87,0,0,0-1.08-.64,6,6,0,0,0-2.52-.55,5.78,5.78,0,0,0-2,.34,5.35,5.35,0,0,0-1.7,1h0a4.82,4.82,0,0,0-1,1.24,7.4,7.4,0,0,0-.44.91Zm1.1-1.11a6.4,6.4,0,0,0-.81-1.34h0a6.15,6.15,0,0,0-1.08-1,7.31,7.31,0,0,0-1.35-.8,7.36,7.36,0,0,0-3.13-.69,7.21,7.21,0,0,0-2.53.43,6.79,6.79,0,0,0-2.16,1.31h0a6.25,6.25,0,0,0-1.28,1.61,10,10,0,0,0-.88,2.15l-.27.92h14.28l-.23-.9a9.58,9.58,0,0,0-.57-1.65Zm20.13,12.48h-2.69l-5.12-11-5,11h-3.86l8.21-18h1.3l8.32,18ZM245,41h.63L239,26.47,232.35,41H233L239,27.91,245,41Zm7.82-10h1.31q1.22,0,2.23.1a10.48,10.48,0,0,1,1.75.31,4.78,4.78,0,0,1,1.5.72,5.77,5.77,0,0,1,1.24,1.22,5.5,5.5,0,0,1,.85,1.61,5.73,5.73,0,0,1,.29,1.82,5.53,5.53,0,0,1-1.64,4A5.14,5.14,0,0,1,258.31,42a8.7,8.7,0,0,1-2.77.4h-6.23v-18h3.55V31Zm1.31,1.45h-2.75V25.88h-.65V41h4.78a7.3,7.3,0,0,0,2.31-.32,3.72,3.72,0,0,0,1.51-.91,4.06,4.06,0,0,0,1.22-3,4.31,4.31,0,0,0-.21-1.36,4.07,4.07,0,0,0-.63-1.19,4.33,4.33,0,0,0-.93-.92,3.36,3.36,0,0,0-1.05-.5,9.07,9.07,0,0,0-1.51-.26q-.89-.09-2.09-.09Zm-1.23,2v4.78h1.73a5,5,0,0,0,2.84-.62,1.91,1.91,0,0,0,.77-1.68,2.5,2.5,0,0,0-.09-.67,3,3,0,0,0-.29-.68h0a1.83,1.83,0,0,0-.41-.51,1.88,1.88,0,0,0-.57-.33,4.5,4.5,0,0,0-1.05-.21,18.17,18.17,0,0,0-1.84-.08Zm-1.45,5.5v.72h3.18a6.35,6.35,0,0,0,3.66-.89,3.27,3.27,0,0,0,1.39-2.86,3.92,3.92,0,0,0-.14-1,4.45,4.45,0,0,0-.42-1,3.27,3.27,0,0,0-.72-.9,3.32,3.32,0,0,0-1-.59h0A5.89,5.89,0,0,0,256,33a19.3,19.3,0,0,0-2-.09h-2.54v6.95ZM279,35.57l2.43,1.28-.33.64a12.33,12.33,0,0,1-1,1.65,9,9,0,0,1-1.19,1.33h0a9.19,9.19,0,0,1-1.33,1,8.78,8.78,0,0,1-1.5.74h0a8.82,8.82,0,0,1-1.68.45,11.18,11.18,0,0,1-1.85.15,10,10,0,0,1-3.89-.72,8,8,0,0,1-3-2.18,10.21,10.21,0,0,1-1.85-3,9.47,9.47,0,0,1-.62-3.42,9.53,9.53,0,0,1,2.1-6h0a8.72,8.72,0,0,1,3.13-2.55,9.23,9.23,0,0,1,4-.85,9.53,9.53,0,0,1,4.12.87,9,9,0,0,1,3.21,2.6h0a8.72,8.72,0,0,1,1.48,2.76,11,11,0,0,1,.51,3.32v.73H266.84a6.45,6.45,0,0,0,.4,1.62,5.52,5.52,0,0,0,1.2,1.85A5.27,5.27,0,0,0,270.19,39a5.52,5.52,0,0,0,2.14.4,6.5,6.5,0,0,0,2.22-.39,6.63,6.63,0,0,0,1-.46,5.08,5.08,0,0,0,.81-.57h0a5.9,5.9,0,0,0,.78-.84,13.44,13.44,0,0,0,.88-1.31l.35-.58.6.32Zm.47,1.88-.55-.29q-.31.48-.62.87a7.37,7.37,0,0,1-1,1.05h0a6.52,6.52,0,0,1-1,.73,8,8,0,0,1-1.22.56,7.86,7.86,0,0,1-2.71.48,6.94,6.94,0,0,1-2.69-.52,6.7,6.7,0,0,1-2.24-1.54,7,7,0,0,1-1.51-2.33,8.26,8.26,0,0,1-.54-2.86l0-.74h14.92a9.12,9.12,0,0,0-.41-2.15,7.29,7.29,0,0,0-1.24-2.31h0a7.54,7.54,0,0,0-2.7-2.19,8.12,8.12,0,0,0-3.51-.73,7.82,7.82,0,0,0-3.39.71,7.29,7.29,0,0,0-2.61,2.13h0a8,8,0,0,0-1.78,5.15,8,8,0,0,0,.52,2.9,8.76,8.76,0,0,0,1.59,2.6,6.55,6.55,0,0,0,2.46,1.79,8.61,8.61,0,0,0,3.34.6,9.8,9.8,0,0,0,1.61-.13,7.21,7.21,0,0,0,2.66-1,7.74,7.74,0,0,0,1.12-.85h0a7.55,7.55,0,0,0,1-1.12q.28-.39.55-.83ZM277.7,31q-.1-.27-.21-.51a4.93,4.93,0,0,0-.63-1,4.72,4.72,0,0,0-.83-.79,5.87,5.87,0,0,0-1.08-.64,6,6,0,0,0-2.52-.55,5.78,5.78,0,0,0-2,.34,5.35,5.35,0,0,0-1.7,1h0a4.81,4.81,0,0,0-1,1.24,7.35,7.35,0,0,0-.44.91Zm1.1-1.11a6.39,6.39,0,0,0-.81-1.34h0a6.14,6.14,0,0,0-1.08-1,7.31,7.31,0,0,0-1.35-.8,7.36,7.36,0,0,0-3.13-.69,7.21,7.21,0,0,0-2.53.43,6.79,6.79,0,0,0-2.16,1.31h0a6.24,6.24,0,0,0-1.28,1.61,10,10,0,0,0-.88,2.15l-.27.92H279.6l-.23-.9a9.57,9.57,0,0,0-.57-1.65ZM180.4,60.26h1.12a2.34,2.34,0,0,0,.79-.13,2.65,2.65,0,0,0,.74-.41,1.51,1.51,0,0,0,.45-.57,2.06,2.06,0,0,0,.16-.85,2.17,2.17,0,0,0-.13-.77,2,2,0,0,0-.4-.64,1.52,1.52,0,0,0-.62-.4,3.16,3.16,0,0,0-1.06-.15,4.14,4.14,0,0,0-1.49.29,6.34,6.34,0,0,0-1.57.9l-.55.42-2.09-2.56.55-.46a9.18,9.18,0,0,1,2.52-1.52,7.41,7.41,0,0,1,2.72-.52,6.46,6.46,0,0,1,2.15.35,5.55,5.55,0,0,1,1.81,1.05,4.73,4.73,0,0,1,1.24,1.65,5,5,0,0,1,.42,2.05,4.54,4.54,0,0,1-.69,2.55,3.9,3.9,0,0,1-.84.92A5,5,0,0,1,187,62.79a5.3,5.3,0,0,1,.87,3.06,5.83,5.83,0,0,1-.4,2.14,6.48,6.48,0,0,1-1.18,1.9h0a5,5,0,0,1-2,1.39,7.52,7.52,0,0,1-2.69.44,8.86,8.86,0,0,1-3.34-.61,7.46,7.46,0,0,1-2.67-1.83l-.45-.48,2.3-2.59.54.61A4.35,4.35,0,0,0,179.46,68a4.76,4.76,0,0,0,1.92.37,2.89,2.89,0,0,0,2.06-.67h0a2.09,2.09,0,0,0,.52-.75,2.67,2.67,0,0,0,.18-1,2.49,2.49,0,0,0-.18-1,2,2,0,0,0-.52-.72,2.53,2.53,0,0,0-.79-.49,2.57,2.57,0,0,0-.93-.16h-2V60.26Zm1.12,1.45h-.4v.39h.59a3.9,3.9,0,0,1,2.68,1,3.44,3.44,0,0,1,.88,1.23,3.91,3.91,0,0,1,.29,1.53,4.1,4.1,0,0,1-.29,1.55,3.52,3.52,0,0,1-.87,1.26,4.27,4.27,0,0,1-3,1.07,6.18,6.18,0,0,1-2.49-.49,5.64,5.64,0,0,1-1.44-.91l-.36.4a6,6,0,0,0,1.68,1,7.45,7.45,0,0,0,2.8.5,6.13,6.13,0,0,0,2.18-.35,3.63,3.63,0,0,0,1.46-1,5,5,0,0,0,.92-1.48,4.4,4.4,0,0,0,.3-1.62,3.9,3.9,0,0,0-.62-2.25,4.18,4.18,0,0,0-1.91-1.45l-1.36-.57a3.78,3.78,0,0,1-1,.13Zm3.3-2a2.91,2.91,0,0,1-.72,1,2.76,2.76,0,0,0,1.17-1,3.15,3.15,0,0,0,.45-1.76,3.56,3.56,0,0,0-.29-1.46,3.3,3.3,0,0,0-.87-1.15,4.11,4.11,0,0,0-1.34-.78,5,5,0,0,0-1.68-.26,6,6,0,0,0-2.2.42,7.31,7.31,0,0,0-1.55.84l.3.37a7.27,7.27,0,0,1,1.36-.7,5.55,5.55,0,0,1,2-.38,4.57,4.57,0,0,1,1.54.24,2.94,2.94,0,0,1,1.21.79,3.43,3.43,0,0,1,.68,1.1,3.59,3.59,0,0,1,.23,1.28,3.48,3.48,0,0,1-.29,1.44Zm20.26,4.75,2.43,1.28-.33.64a12.35,12.35,0,0,1-1,1.65A9,9,0,0,1,205,69.38h0a9.2,9.2,0,0,1-1.34,1,8.82,8.82,0,0,1-1.49.74h0a8.84,8.84,0,0,1-1.68.45,11.19,11.19,0,0,1-1.85.15,10,10,0,0,1-3.89-.72,8,8,0,0,1-3-2.18,10.21,10.21,0,0,1-1.85-3,9.47,9.47,0,0,1-.62-3.42,9.53,9.53,0,0,1,2.1-6h0a8.72,8.72,0,0,1,3.13-2.55,9.23,9.23,0,0,1,4-.85,9.54,9.54,0,0,1,4.12.87,9,9,0,0,1,3.21,2.6h0a8.72,8.72,0,0,1,1.48,2.76,11,11,0,0,1,.51,3.32v.73H192.93a6.44,6.44,0,0,0,.4,1.62,5.52,5.52,0,0,0,1.2,1.85,5.28,5.28,0,0,0,1.76,1.21,5.52,5.52,0,0,0,2.14.4,6.48,6.48,0,0,0,2.22-.39,6.64,6.64,0,0,0,1-.46,5.13,5.13,0,0,0,.82-.57,5.93,5.93,0,0,0,.78-.84,13.53,13.53,0,0,0,.88-1.31l.35-.58.6.32Zm.47,1.88-.55-.29q-.31.48-.62.87a7.33,7.33,0,0,1-1,1.05h0a6.51,6.51,0,0,1-1,.73,8.08,8.08,0,0,1-1.22.56,7.87,7.87,0,0,1-2.71.48,7,7,0,0,1-2.69-.52,6.7,6.7,0,0,1-2.24-1.54A7,7,0,0,1,192,65.38a8.24,8.24,0,0,1-.54-2.86l0-.74h14.92a9.12,9.12,0,0,0-.41-2.15,7.29,7.29,0,0,0-1.24-2.31h0a7.54,7.54,0,0,0-2.7-2.19,8.12,8.12,0,0,0-3.51-.73,7.81,7.81,0,0,0-3.39.71,7.29,7.29,0,0,0-2.61,2.13h0a8,8,0,0,0-1.78,5.15,8,8,0,0,0,.52,2.9,8.77,8.77,0,0,0,1.59,2.6,6.54,6.54,0,0,0,2.46,1.79,8.61,8.61,0,0,0,3.34.6,9.8,9.8,0,0,0,1.61-.13,7.21,7.21,0,0,0,2.65-1,7.75,7.75,0,0,0,1.13-.85h0a7.59,7.59,0,0,0,1-1.12q.28-.39.55-.83ZM203.79,60q-.1-.27-.21-.51a4.93,4.93,0,0,0-.63-1,4.72,4.72,0,0,0-.83-.79,5.86,5.86,0,0,0-1.08-.64,6,6,0,0,0-2.52-.55,5.78,5.78,0,0,0-2,.34,5.35,5.35,0,0,0-1.7,1h0a4.81,4.81,0,0,0-1,1.24,7.43,7.43,0,0,0-.44.91Zm1.1-1.11a6.38,6.38,0,0,0-.81-1.34h0a6.15,6.15,0,0,0-1.08-1,7.33,7.33,0,0,0-1.35-.8,7.37,7.37,0,0,0-3.13-.69,7.21,7.21,0,0,0-2.53.44,6.78,6.78,0,0,0-2.16,1.31h0a6.24,6.24,0,0,0-1.28,1.61,9.94,9.94,0,0,0-.88,2.15l-.27.92h14.28l-.23-.9a9.57,9.57,0,0,0-.57-1.65ZM225,71.33h-2.69l-5.12-11-5,11h-3.86l8.21-18h1.3l8.32,18Zm-1.76-1.45h.63l-6.71-14.49-6.62,14.49h.69l6-13.05,6,13.05Zm19.28-5.39L245,65.76l-.33.64a12.35,12.35,0,0,1-1,1.65,9,9,0,0,1-1.19,1.33h0a9.19,9.19,0,0,1-1.33,1,8.79,8.79,0,0,1-1.5.74h0a8.83,8.83,0,0,1-1.68.45,11.19,11.19,0,0,1-1.85.15,10,10,0,0,1-3.89-.72,8,8,0,0,1-3-2.18,10.21,10.21,0,0,1-1.85-3,9.48,9.48,0,0,1-.62-3.42,9.53,9.53,0,0,1,2.1-6h0A8.72,8.72,0,0,1,232,53.8a9.23,9.23,0,0,1,4-.85,9.54,9.54,0,0,1,4.12.87,9,9,0,0,1,3.22,2.6h0a8.72,8.72,0,0,1,1.48,2.76,11,11,0,0,1,.51,3.32v.73H230.4a6.42,6.42,0,0,0,.4,1.62,5.52,5.52,0,0,0,1.2,1.85,5.27,5.27,0,0,0,1.76,1.21,5.52,5.52,0,0,0,2.14.4,6.49,6.49,0,0,0,2.22-.39,6.63,6.63,0,0,0,1-.46,5.13,5.13,0,0,0,.82-.57,6,6,0,0,0,.78-.84,13.53,13.53,0,0,0,.88-1.31l.35-.58.6.32Zm.47,1.88-.55-.29q-.31.48-.62.87a7.36,7.36,0,0,1-1,1.05h0a6.52,6.52,0,0,1-1,.73,8.08,8.08,0,0,1-1.22.56,7.87,7.87,0,0,1-2.71.48,6.94,6.94,0,0,1-2.69-.52A6.71,6.71,0,0,1,231,67.71a7,7,0,0,1-1.51-2.33,8.25,8.25,0,0,1-.54-2.86l0-.74h14.92a9.12,9.12,0,0,0-.41-2.15,7.29,7.29,0,0,0-1.24-2.31h0a7.54,7.54,0,0,0-2.7-2.19A8.12,8.12,0,0,0,236,54.4a7.81,7.81,0,0,0-3.39.71A7.29,7.29,0,0,0,230,57.24h0a8,8,0,0,0-1.78,5.15,8,8,0,0,0,.52,2.9,8.75,8.75,0,0,0,1.59,2.6,6.54,6.54,0,0,0,2.46,1.79,8.61,8.61,0,0,0,3.34.6,9.81,9.81,0,0,0,1.61-.13,7.21,7.21,0,0,0,2.66-1,7.73,7.73,0,0,0,1.12-.85h0a7.56,7.56,0,0,0,1-1.12q.28-.39.55-.83ZM241.26,60q-.1-.27-.21-.51a4.94,4.94,0,0,0-.63-1,4.7,4.7,0,0,0-.83-.79,5.88,5.88,0,0,0-1.08-.64,6,6,0,0,0-2.52-.55,5.78,5.78,0,0,0-2,.34,5.34,5.34,0,0,0-1.7,1h0a4.81,4.81,0,0,0-1,1.24,7.34,7.34,0,0,0-.44.91Zm1.1-1.11a6.39,6.39,0,0,0-.81-1.34,6.16,6.16,0,0,0-1.08-1,7.34,7.34,0,0,0-1.35-.8A7.37,7.37,0,0,0,236,55a7.21,7.21,0,0,0-2.53.44,6.78,6.78,0,0,0-2.16,1.31h0A6.24,6.24,0,0,0,230,58.33a10,10,0,0,0-.88,2.15l-.27.92h14.28l-.23-.9a9.54,9.54,0,0,0-.57-1.65Zm-9.45-12a2.45,2.45,0,0,1,.95.19,2.49,2.49,0,0,1,.8.54h0a2.5,2.5,0,0,1,.54.8,2.52,2.52,0,0,1,0,1.9,2.5,2.5,0,0,1-.54.8h0a2.5,2.5,0,0,1-.8.54,2.52,2.52,0,0,1-1.9,0,2.5,2.5,0,0,1-.8-.54h0a2.5,2.5,0,0,1-.54-.8,2.47,2.47,0,0,1-.18-.95,2.4,2.4,0,0,1,.72-1.75h0A2.5,2.5,0,0,1,232,47a2.46,2.46,0,0,1,.95-.19Zm.4,1.52a1.15,1.15,0,0,0-.8,0,1.06,1.06,0,0,0-.34.23,1,1,0,0,0-.3.74,1,1,0,0,0,.07.4,1.09,1.09,0,0,0,.56.56,1.15,1.15,0,0,0,.8,0,1.07,1.07,0,0,0,.33-.23,1.05,1.05,0,0,0,.23-.34,1.15,1.15,0,0,0,0-.8,1.1,1.1,0,0,0-.56-.56Zm5.79-1.52a2.45,2.45,0,0,1,.95.19,2.49,2.49,0,0,1,.8.54h0a2.5,2.5,0,0,1,.54.8,2.52,2.52,0,0,1,0,1.9,2.49,2.49,0,0,1-.54.8h0a2.5,2.5,0,0,1-.8.54,2.52,2.52,0,0,1-1.9,0,2.5,2.5,0,0,1-.8-.54h0a2.49,2.49,0,0,1-.54-.8,2.52,2.52,0,0,1,0-1.9,2.49,2.49,0,0,1,.54-.8h0a2.5,2.5,0,0,1,.8-.54,2.46,2.46,0,0,1,.95-.19Zm.4,1.52a1.15,1.15,0,0,0-.8,0,1.09,1.09,0,0,0-.56.56,1.15,1.15,0,0,0,0,.8,1.09,1.09,0,0,0,.56.56,1.15,1.15,0,0,0,.8,0,1.09,1.09,0,0,0,.56-.56,1.15,1.15,0,0,0,0-.8,1.1,1.1,0,0,0-.56-.56Zm20,15h-8.2v8h-3.56v-18h3.56v6.57h8.2V53.35h3.56v18H259.5v-8Zm-8.92-1.45h10.37v8h.67V54.8h-.67v6.57H249.85V54.8h-.67V69.88h.67v-8Zm19.32-2h1.31q1.22,0,2.23.1a10.47,10.47,0,0,1,1.75.31,4.79,4.79,0,0,1,1.5.72,5.77,5.77,0,0,1,1.24,1.22,5.51,5.51,0,0,1,.85,1.61,5.74,5.74,0,0,1,.29,1.82,5.53,5.53,0,0,1-1.64,4,5.14,5.14,0,0,1-2.08,1.27,8.7,8.7,0,0,1-2.77.4h-6.23v-18h3.55v6.54Zm1.31,1.45h-2.75V54.8h-.65V69.88h4.78a7.3,7.3,0,0,0,2.31-.32,3.72,3.72,0,0,0,1.51-.91,4.06,4.06,0,0,0,1.22-3,4.3,4.3,0,0,0-.21-1.36,4.07,4.07,0,0,0-.63-1.19,4.33,4.33,0,0,0-.93-.92,3.35,3.35,0,0,0-1.05-.5,9,9,0,0,0-1.51-.26q-.89-.09-2.09-.09Zm-1.23,2v4.78h1.73a5,5,0,0,0,2.84-.62,1.91,1.91,0,0,0,.77-1.68,2.72,2.72,0,0,0-.37-1.34h0a1.82,1.82,0,0,0-.41-.51,1.88,1.88,0,0,0-.57-.33,4.49,4.49,0,0,0-1.05-.21,18.24,18.24,0,0,0-1.84-.08Zm-1.45,5.5v.72h3.18a6.35,6.35,0,0,0,3.66-.89,3.27,3.27,0,0,0,1.39-2.86,4.14,4.14,0,0,0-.56-2,3.25,3.25,0,0,0-.73-.9,3.31,3.31,0,0,0-1-.59h0a5.9,5.9,0,0,0-1.41-.29,19.41,19.41,0,0,0-2-.09h-2.54V68.8ZM281.3,53.35h2.84v17.9l6.73-9.37-6.2-8.53H289l4,5.53,4-5.53h4.31l-6.12,8.52,6.88,9.46h-4.34L293,64.87l-4.64,6.46h-7.82v-18Zm1.39,1.45H282V69.88h.67V54.8Zm5.58,0h-.77l5.15,7.08-5.75,8h.76L293,62.41l5.43,7.47h.77l-5.82-8,5.08-7.08h-.76L293,61.35l-4.76-6.55ZM177.67,82.27h2.84v1.85l.15-.14a8.29,8.29,0,0,1,1.69-1.18h0a8.09,8.09,0,0,1,1.91-.7,9,9,0,0,1,8.63,2.51,9.08,9.08,0,0,1,2.72,6.6,9.63,9.63,0,0,1-.68,3.63,9.34,9.34,0,0,1-2,3h0a9.11,9.11,0,0,1-3,2.06,9,9,0,0,1-3.53.69,9.27,9.27,0,0,1-2-.23,8.54,8.54,0,0,1-1.9-.67h0a9.08,9.08,0,0,1-1.71-1.11l-.24-.2v7.84h-3.56v-24Zm1.39,1.45h-.67v21.12h.67V94.65l1.28,1.55a9.5,9.5,0,0,0,1.32,1.32,7.67,7.67,0,0,0,1.44.94,7,7,0,0,0,1.57.56,7.84,7.84,0,0,0,1.73.19,7.55,7.55,0,0,0,3-.57,7.7,7.7,0,0,0,2.5-1.74,7.91,7.91,0,0,0,1.71-2.58,8.21,8.21,0,0,0,.57-3.09,7.61,7.61,0,0,0-2.29-5.58,7.81,7.81,0,0,0-2.53-1.74,7.63,7.63,0,0,0-3-.58,7.72,7.72,0,0,0-1.76.19,6.67,6.67,0,0,0-1.57.58h0a6.87,6.87,0,0,0-1.4,1,8.8,8.8,0,0,0-1.25,1.4l-1.31,1.8V83.72Zm7.13,1.65a5.88,5.88,0,0,0-2.27.42,5.58,5.58,0,0,0-1.86,1.28A5.7,5.7,0,0,0,180.8,89a6.36,6.36,0,0,0-.42,2.36,6.65,6.65,0,0,0,.19,1.61,5.65,5.65,0,0,0,.56,1.41,5.26,5.26,0,0,0,.9,1.18,5.77,5.77,0,0,0,1.23.92,6.19,6.19,0,0,0,1.44.59,5.89,5.89,0,0,0,1.51.19,5.54,5.54,0,0,0,2.86-.79h0a5.58,5.58,0,0,0,1.2-.94,6.1,6.1,0,0,0,.93-1.26h0a6.25,6.25,0,0,0,.6-1.46,5.83,5.83,0,0,0,.2-1.52,5.92,5.92,0,0,0-.2-1.53,6.18,6.18,0,0,0-.59-1.45,6,6,0,0,0-.93-1.25,5.48,5.48,0,0,0-1.19-.92h0a5.62,5.62,0,0,0-1.39-.58,5.89,5.89,0,0,0-1.52-.19Zm-2.82-.91a7,7,0,0,0-2.34,1.6,7.13,7.13,0,0,0-1.57,2.4,7.79,7.79,0,0,0-.52,2.89,8.07,8.07,0,0,0,.23,2,7.1,7.1,0,0,0,.7,1.77,6.7,6.7,0,0,0,1.15,1.5,7.2,7.2,0,0,0,1.54,1.15,7.63,7.63,0,0,0,1.78.73,7.31,7.31,0,0,0,1.88.24,7.21,7.21,0,0,0,5.09-2.16A7.55,7.55,0,0,0,192.47,95h0a7.7,7.7,0,0,0,.74-1.79,7.35,7.35,0,0,0,0-3.78,7.6,7.6,0,0,0-.74-1.79,7.39,7.39,0,0,0-1.15-1.55,6.92,6.92,0,0,0-1.5-1.16h0a7,7,0,0,0-1.74-.73,7.57,7.57,0,0,0-4.7.29Zm29.78,8.95,2.43,1.28-.33.64a12.36,12.36,0,0,1-1,1.65,9,9,0,0,1-1.19,1.33h0a9.17,9.17,0,0,1-1.33,1,8.8,8.8,0,0,1-1.5.74h0a8.83,8.83,0,0,1-1.68.45,11.22,11.22,0,0,1-1.85.15,10,10,0,0,1-3.89-.72,8,8,0,0,1-3-2.18,10.21,10.21,0,0,1-1.85-3,9.47,9.47,0,0,1-.62-3.42,9.53,9.53,0,0,1,2.1-6h0a8.72,8.72,0,0,1,3.13-2.55,9.23,9.23,0,0,1,4-.85,9.54,9.54,0,0,1,4.12.87,9,9,0,0,1,3.21,2.6h0a8.73,8.73,0,0,1,1.48,2.76,11,11,0,0,1,.51,3.32v.73H201a6.43,6.43,0,0,0,.4,1.62,5.52,5.52,0,0,0,1.2,1.85,5.28,5.28,0,0,0,1.76,1.21,5.52,5.52,0,0,0,2.14.4,6.49,6.49,0,0,0,2.22-.39,6.58,6.58,0,0,0,1-.46,5.07,5.07,0,0,0,.81-.57h0a5.92,5.92,0,0,0,.78-.84,13.62,13.62,0,0,0,.88-1.31l.35-.58.6.32Zm.47,1.88-.55-.29q-.31.48-.62.87a7.38,7.38,0,0,1-1,1.05h0a6.53,6.53,0,0,1-1,.73,8.25,8.25,0,0,1-2.56.92,7.93,7.93,0,0,1-1.38.12,6.94,6.94,0,0,1-2.69-.52,6.71,6.71,0,0,1-2.24-1.54,7,7,0,0,1-1.51-2.33,8.25,8.25,0,0,1-.54-2.86l0-.74h14.92a9.12,9.12,0,0,0-.41-2.15,7.3,7.3,0,0,0-1.24-2.31h0a7.54,7.54,0,0,0-2.7-2.19,8.12,8.12,0,0,0-3.51-.73,7.82,7.82,0,0,0-3.39.71,7.3,7.3,0,0,0-2.61,2.13h0a8,8,0,0,0-1.78,5.15,8,8,0,0,0,.52,2.9,8.76,8.76,0,0,0,1.59,2.6,6.55,6.55,0,0,0,2.46,1.79,8.61,8.61,0,0,0,3.34.61,9.77,9.77,0,0,0,1.61-.13,7.22,7.22,0,0,0,2.66-1,7.72,7.72,0,0,0,1.12-.85h0a7.55,7.55,0,0,0,1-1.12q.28-.39.55-.83Zm-1.76-6.41q-.1-.27-.21-.51a4.94,4.94,0,0,0-.63-1,4.71,4.71,0,0,0-.83-.79,5.86,5.86,0,0,0-1.08-.64,6,6,0,0,0-1.23-.42h0a6,6,0,0,0-1.29-.14,5.79,5.79,0,0,0-2,.34,5.34,5.34,0,0,0-1.7,1h0a4.82,4.82,0,0,0-1,1.24,7.37,7.37,0,0,0-.44.91Zm1.1-1.11a6.38,6.38,0,0,0-.81-1.34h0a6.16,6.16,0,0,0-1.08-1,7.32,7.32,0,0,0-1.35-.8,7.47,7.47,0,0,0-1.53-.51h0a7.43,7.43,0,0,0-1.6-.17,7.22,7.22,0,0,0-2.53.43,6.79,6.79,0,0,0-2.16,1.31h0a6.25,6.25,0,0,0-1.28,1.61,10,10,0,0,0-.88,2.15l-.27.92h14.28l-.22-.9a9.55,9.55,0,0,0-.57-1.65Zm30.83,12.48H218.36v-18h3.56V96.81h7.7V82.27h3.62V96.81h7.64V82.27h3.62v18Zm-24-1.45h23.26V83.72h-.73V98.25H231.81V83.72h-.73V98.25h-10.6V83.72h-.67V98.8Zm43-5.39,2.43,1.28-.33.64a12.36,12.36,0,0,1-1,1.65,9,9,0,0,1-1.19,1.33h0a9.18,9.18,0,0,1-1.33,1,8.82,8.82,0,0,1-1.5.74h0a8.84,8.84,0,0,1-1.68.45,11.2,11.2,0,0,1-1.85.15,10,10,0,0,1-3.89-.72,8,8,0,0,1-3-2.18,10.21,10.21,0,0,1-1.85-3,9.48,9.48,0,0,1-.62-3.42,9.52,9.52,0,0,1,2.1-6h0a8.72,8.72,0,0,1,3.13-2.55,9.23,9.23,0,0,1,4-.85,9.54,9.54,0,0,1,4.12.87,9,9,0,0,1,3.22,2.6h0A8.73,8.73,0,0,1,265,88.11a11,11,0,0,1,.51,3.32v.73h-14.9a6.44,6.44,0,0,0,.4,1.62,5.52,5.52,0,0,0,1.2,1.85A5.28,5.28,0,0,0,254,96.84a5.52,5.52,0,0,0,2.14.4,6.49,6.49,0,0,0,2.22-.39,6.59,6.59,0,0,0,1-.46,5.09,5.09,0,0,0,.81-.57A5.94,5.94,0,0,0,261,95a13.51,13.51,0,0,0,.88-1.31l.35-.58.6.32Zm.47,1.88-.55-.29q-.31.48-.62.87a7.34,7.34,0,0,1-1,1.05,6.53,6.53,0,0,1-1,.73,8.24,8.24,0,0,1-2.56.92,7.94,7.94,0,0,1-1.38.12,6.94,6.94,0,0,1-2.69-.52,6.71,6.71,0,0,1-2.24-1.54,7,7,0,0,1-1.51-2.33,8.24,8.24,0,0,1-.54-2.86l0-.74h14.92a9.15,9.15,0,0,0-.41-2.15,7.31,7.31,0,0,0-1.24-2.31h0a7.54,7.54,0,0,0-2.7-2.19,8.12,8.12,0,0,0-3.51-.73,7.82,7.82,0,0,0-3.39.71,7.29,7.29,0,0,0-2.61,2.13h0a8,8,0,0,0-1.78,5.15,8,8,0,0,0,.52,2.9,8.76,8.76,0,0,0,1.59,2.6A6.54,6.54,0,0,0,253,98.6a8.61,8.61,0,0,0,3.34.61,9.77,9.77,0,0,0,1.61-.13,7.21,7.21,0,0,0,2.66-1,7.74,7.74,0,0,0,1.12-.85h0a7.58,7.58,0,0,0,1-1.12q.28-.39.55-.83Zm-1.76-6.41q-.1-.27-.21-.51a4.94,4.94,0,0,0-.63-1h0a4.71,4.71,0,0,0-.83-.8,5.87,5.87,0,0,0-1.08-.64,6,6,0,0,0-1.23-.42h0a6,6,0,0,0-1.29-.14,5.78,5.78,0,0,0-2,.34,5.35,5.35,0,0,0-1.7,1h0a4.83,4.83,0,0,0-1,1.24,7.4,7.4,0,0,0-.44.91Zm1.1-1.11a6.39,6.39,0,0,0-.81-1.34h0a6.16,6.16,0,0,0-1.08-1,7.32,7.32,0,0,0-1.35-.8,7.47,7.47,0,0,0-1.53-.51h0a7.43,7.43,0,0,0-1.6-.17,7.22,7.22,0,0,0-2.53.43,6.79,6.79,0,0,0-2.16,1.31h0a6.25,6.25,0,0,0-1.28,1.61,9.93,9.93,0,0,0-.88,2.15l-.27.92h14.28l-.23-.9a9.54,9.54,0,0,0-.57-1.65Zm17.16,4.51h-8.2v8H268v-18h3.56v6.57h8.2V82.27h3.56v18h-3.56v-8Zm-8.92-1.45h10.37v8h.67V83.72h-.67v6.57H270.14V83.72h-.67V98.8h.67v-8ZM290.2,83V93.49l11.14-11.21h1.19v18H299V89.12l-11,11.12h-1.28v-18h3.56V83Zm-1.45,12.24V83.72h-.67V98l12.32-12.41V98.8h.67V84.58L288.75,97V95.24ZM309.37,83V93.49l11.14-11.21h1.19v18h-3.56V89.12l-11,11.12h-1.28v-18h3.56V83Zm-1.45,12.24V83.72h-.67V98l12.32-12.41V98.8h.67V84.58L307.93,97V95.24Zm.44-19.62h2.38l.22.33a2.55,2.55,0,0,0,.47.54,2.6,2.6,0,0,0,.61.39,3.45,3.45,0,0,0,.79.25,5.21,5.21,0,0,0,1,.09,5.62,5.62,0,0,0,1-.07,2.8,2.8,0,0,0,.69-.21,2.46,2.46,0,0,0,.56-.38,4.18,4.18,0,0,0,.59-.64l.22-.29h3.21l-.22.89a4.16,4.16,0,0,1-.72,1.52,5.2,5.2,0,0,1-1.29,1.2A5.83,5.83,0,0,1,316,80a9,9,0,0,1-2.21.25,9.14,9.14,0,0,1-2.2-.25,6.07,6.07,0,0,1-1.83-.77h0a5.25,5.25,0,0,1-1.33-1.19,4.31,4.31,0,0,1-.77-1.53l-.25-.91ZM310,77.06h-.5l.08.11a3.83,3.83,0,0,0,1,.86h0a4.64,4.64,0,0,0,1.4.58,7.74,7.74,0,0,0,1.85.2,7.59,7.59,0,0,0,1.86-.21A4.4,4.4,0,0,0,317,78a3.77,3.77,0,0,0,.93-.87l.07-.1h-.48a5.26,5.26,0,0,1-.56.57,3.87,3.87,0,0,1-.9.59,4.22,4.22,0,0,1-1,.32,7,7,0,0,1-1.23.1,6.61,6.61,0,0,1-1.25-.11,4.87,4.87,0,0,1-1.12-.35,4,4,0,0,1-1-.6A3.88,3.88,0,0,1,310,77.06Z" fill="#537a1e" fill-rule="evenodd"/><path d="M182,122h.92a9.46,9.46,0,0,0,.54,2.52.55.55,0,0,0,.52.37.54.54,0,0,0,.57-.51.66.66,0,0,0,0-.17h0a9.44,9.44,0,0,1-.49-2.42A.58.58,0,0,0,184,121c-.06-1-.05-2.08-.17-3.12-.09-.87-.32-2.39-1.73-2.4h0c-1.66,0-2.59,2.22-3,3.18a10,10,0,0,0-.65,2.78,3,3,0,0,0-1.3,1,.49.49,0,0,0-.12.29.59.59,0,0,0,.58.57h.26a.55.55,0,0,0,.55-.43,8.33,8.33,0,0,0,.25,1.49.56.56,0,0,0,.58.4h.22a.52.52,0,0,0,.45-.4h0v-.08s0,0,0-.07a.47.47,0,0,0-.18-.37,7,7,0,0,1-.14-1.41v-.17A11.06,11.06,0,0,1,182,122Zm.05-5.44a.32.32,0,0,1,.24.14c.53.67.45,1.95.48,2.84,0,.47.07.88.09,1.33h-.4a15.26,15.26,0,0,0-2.76.21c.06-.37.12-.75.21-1.14s1.43-3.38,2.14-3.38Zm8.38,4.45a13,13,0,0,1,.32-1.62.61.61,0,0,0,0-.16c0-.4-.44-.47-.65-.47a.59.59,0,0,0-.58.41,8.56,8.56,0,0,0-.36,1.61h-.59l-1.16,0v-.2a3.25,3.25,0,0,0-.3-1.64.51.51,0,0,0-.45-.3.6.6,0,0,0-.59.59.61.61,0,0,0,.06.27,4.35,4.35,0,0,1,.08.88c0,.07,0,.23,0,.45,0,.85,0,2.62-.07,3.14h0v0a.5.5,0,0,0,.54.48.59.59,0,0,0,.6-.51c.05-.69.08-1.37.11-2.06h1.68c0,.16,0,.33,0,.53a8.45,8.45,0,0,0,.8,3.87.54.54,0,0,0,.47.3.62.62,0,0,0,.6-.61.75.75,0,0,0,0-.24h0a8,8,0,0,1-.55-3.22c0-.13,0-.31,0-.49a2.8,2.8,0,0,0,.49.05.92.92,0,0,0,.29,0,.42.42,0,0,0,.27-.43.45.45,0,0,0-.11-.36,1.29,1.29,0,0,0-.85-.3Zm13.94-2.08h0a2.28,2.28,0,0,0-1.54-.48h-.15a2.9,2.9,0,0,0-.66.06,6.06,6.06,0,0,0-2.41,1.08,8,8,0,0,0-1.16.93c.06-.44.12-.89.2-1.32a6.54,6.54,0,0,1,.19-.79,1.75,1.75,0,0,1,.07-.21.55.55,0,0,0,.32-.49.51.51,0,0,0-.34-.49.66.66,0,0,0-.26-.06c-.85,0-1.18,1.58-1.38,3.12a5.36,5.36,0,0,0-3.28-1.74,2.13,2.13,0,0,0-1.68.82.5.5,0,0,0-.13.31.54.54,0,0,0,.54.5A.51.51,0,0,0,193,120a1.22,1.22,0,0,1,.91-.4c.91,0,2,.89,3,1.88l-.84.59-1.86,1.38c-.39.3-1.24,1.07-1.71,1.07h-.05a.74.74,0,0,0-.22,0,.68.68,0,0,0-.66.71.58.58,0,0,0,.61.6h.13a5.06,5.06,0,0,0,2.75-1.43c.63-.51,1.26-1,1.91-1.5,0,.22,0,.44,0,.64a7.92,7.92,0,0,0,.07,1.36.61.61,0,0,0,.6.51.76.76,0,0,0,.78-.68.5.5,0,0,0-.09-.29,1.84,1.84,0,0,1-.15-.8c0-.17,0-.33,0-.5s0-.24,0-.37l.46.48a6.1,6.1,0,0,0,2.46,1.57,4.09,4.09,0,0,0,1.22.17,9.58,9.58,0,0,0,2.05-.31A.64.64,0,0,0,205,124a.62.62,0,0,0-.6-.66.84.84,0,0,0-.3.07h0a3,3,0,0,1-1.36.36c-1.58,0-2.71-.93-3.91-2l.09-.06h0A19.11,19.11,0,0,1,201.3,120a3,3,0,0,1,1.58-.43,1,1,0,0,1,.8.27.52.52,0,0,0,.31.11.63.63,0,0,0,.6-.62.56.56,0,0,0-.23-.43Zm3.44,1a.45.45,0,0,1,.33.39.48.48,0,0,1,0,.06h0a1.38,1.38,0,0,1-1.43.93,1.92,1.92,0,0,1-.39,0h0l-.21,0a4.48,4.48,0,0,1,.32-.51,2.05,2.05,0,0,1,1.3-.81Zm-.43,3.26a3.66,3.66,0,0,0,1.93-.62.63.63,0,0,1,.35-.13.55.55,0,0,1,.51.59.71.71,0,0,1-.33.61,5,5,0,0,1-2.64.83,2.24,2.24,0,0,1-2.19-1.24,2.74,2.74,0,0,1-.24-1.14,3,3,0,0,1,1.83-2.81,3.34,3.34,0,0,1,1.2-.23c.87,0,1.63.38,1.63,1.22a1.76,1.76,0,0,1-.12.61,2.71,2.71,0,0,1-2.58,1.59,2.52,2.52,0,0,1-.86-.15.78.78,0,0,0,.52.72,2.37,2.37,0,0,0,1,.18Zm10.38-.34a1.38,1.38,0,0,1-.92-.33,2.44,2.44,0,0,1-.76-1.9,5.18,5.18,0,0,1,.1-1c0-.07,0-.15,0-.23a.47.47,0,0,0-.51-.57.67.67,0,0,0-.67.49,9.5,9.5,0,0,1-1.15,2.91,2.73,2.73,0,0,1-1,1.09.34.34,0,0,1-.15,0c-.21,0-.4-.57-.4-1.06a1.28,1.28,0,0,1,0-.18.49.49,0,0,0,0-.09.39.39,0,0,0-.42-.38.51.51,0,0,0-.47.29,2,2,0,0,0-.16.78,1.67,1.67,0,0,0,.89,1.55,1.07,1.07,0,0,0,.52.13,2,2,0,0,0,1.33-.64,6,6,0,0,0,1.09-1.46,2.77,2.77,0,0,0,1.13,1.32,2.51,2.51,0,0,0,1.28.35,2.18,2.18,0,0,0,1.81-.6.51.51,0,0,0,.23-.41.57.57,0,0,0-.58-.54.61.61,0,0,0-.45.21c-.34.19-.65.12-.86.21Zm6,.14h0a2.91,2.91,0,0,1-2.5,1.41h-.11a.28.28,0,0,1-.11,0c-1.13-.12-1.42-1-1.42-1.95s.29-2.12.33-2.84a.55.55,0,0,1,.6-.52c.23,0,.55.07.58.43a.3.3,0,0,1,0,.06v.15c0,.67-.36,1.71-.37,2.49,0,.49.13.83.49,1a.83.83,0,0,0,.28,0c1.16,0,2.35-2.73,2.8-3.62a.76.76,0,0,1,.72-.35c.24,0,.64.08.64.4,0,.73-.32,1.53-.32,2.22,0,1,.29,1.62,1.2,1.62l.24,0H227a.65.65,0,0,1,.61.64.43.43,0,0,1-.35.43,3.62,3.62,0,0,1-.81.1,2.29,2.29,0,0,1-2.3-2.36c-.12.23-.25.48-.35.72Zm15.68,3.16a.51.51,0,0,0,.31-.47v-.06h0a.63.63,0,0,0-.63-.55.48.48,0,0,0-.16,0,7.61,7.61,0,0,1-2.45.45,3.72,3.72,0,0,1-2.2-.63,10,10,0,0,1-2-2.27,4.51,4.51,0,0,0-1.74-1.49,5.18,5.18,0,0,1,1.6-1.26,3.69,3.69,0,0,1,.62-.25h0a3.94,3.94,0,0,1,.87-.12c.48,0,.67.09.67.24a1.14,1.14,0,0,1-.33.58.52.52,0,0,0-.13.35.57.57,0,0,0,.56.57.51.51,0,0,0,.39-.19,1.82,1.82,0,0,0,.5-1.17,1.5,1.5,0,0,0-1.65-1.48,4.46,4.46,0,0,0-1.19.18,6.14,6.14,0,0,0-3.38,2.75l0-.28h0V121c0-.23,0-.62,0-1a2,2,0,0,1,.1-.71.57.57,0,0,0-.29-1,.54.54,0,0,0-.3.1h0c-.6.42-.48,1.31-.51,1.8-.06,1.31-.27,2.63-.27,4a.54.54,0,0,0,1.06.09,8.8,8.8,0,0,1,1.07-2.39c.94.64,1.11,1.44,1.86,2.34a6.79,6.79,0,0,0,2.85,2.27,6.29,6.29,0,0,0,2,.27,7.13,7.13,0,0,0,2.79-.58Zm1.25-3.16h0a2.91,2.91,0,0,1-2.5,1.41h-.11a.28.28,0,0,1-.11,0c-1.13-.12-1.42-1-1.42-1.95s.29-2.12.33-2.84a.55.55,0,0,1,.6-.52c.23,0,.55.07.58.43a.3.3,0,0,1,0,.06v.15c0,.67-.36,1.71-.37,2.49,0,.49.13.83.49,1a.83.83,0,0,0,.28,0c1.16,0,2.35-2.73,2.8-3.62a.76.76,0,0,1,.72-.35c.24,0,.64.08.64.4,0,.73-.32,1.53-.32,2.22,0,1,.29,1.62,1.2,1.62l.24,0h.16a.65.65,0,0,1,.61.64.43.43,0,0,1-.35.43,3.62,3.62,0,0,1-.81.1,2.29,2.29,0,0,1-2.3-2.36c-.12.23-.25.48-.35.72Zm19,.82c-1.18,0-2.12-.38-2.38-1.47a1.81,1.81,0,0,1,0-.41,2.15,2.15,0,0,1,1-1.69l.32-.23a3.1,3.1,0,0,0,.4.17,1.91,1.91,0,0,0,.62.09,1.34,1.34,0,0,0,1.26-.59,1,1,0,0,0,.08-.37.9.9,0,0,0-.63-.81,1.06,1.06,0,0,0-.42-.08,2.93,2.93,0,0,0-1.2.35.87.87,0,0,1-.22-.6,1.9,1.9,0,0,1,.38-1,1.73,1.73,0,0,1,1.06-.69H260c.45,0,1,.32,1,.65a.46.46,0,0,1,0,.17.43.43,0,0,0,0,.18.41.41,0,0,0,.44.38.51.51,0,0,0,.46-.27,1.35,1.35,0,0,0,.16-.62c0-.94-1.1-1.47-2-1.47a2.13,2.13,0,0,0-.48.05,2.88,2.88,0,0,0-2.13,2.75,2.3,2.3,0,0,0,.08.61,1.55,1.55,0,0,0,.24.49,3.48,3.48,0,0,0-1.41,2,2.87,2.87,0,0,0-.08.68,2.82,2.82,0,0,0,1.26,2.37,3.9,3.9,0,0,0,2.06.53,11.43,11.43,0,0,0,4.41-1.22,5.62,5.62,0,0,0,.56-.3.57.57,0,0,0,.3-.48.51.51,0,0,0-.51-.52.62.62,0,0,0-.35.12,8.43,8.43,0,0,1-4.24,1.33ZM264.8,120h0c.27-.17.55-.34.85-.5a14.88,14.88,0,0,0-.5,2.33h0a4.62,4.62,0,0,0,0,.55,4.8,4.8,0,0,0,.08.78,2,2,0,0,1-1.06-1.86,1.33,1.33,0,0,1,.65-1.28Zm3.51,0a.76.76,0,0,1,.19.5c0,.84-1.06,1.89-2,2.41,0-.22,0-.44,0-.66a8.79,8.79,0,0,1,.59-3.15,2.2,2.2,0,0,1,1.22.9Zm-2.2,11.17a.72.72,0,0,1-.54.2c-.34,0-.69-.17-.69-.44a1.15,1.15,0,0,1,.09-.35,6.13,6.13,0,0,0,.84-3.16,14.15,14.15,0,0,0-.23-2.19c0-.28-.1-.59-.16-.87a3,3,0,0,1-2.47-3.13,2.54,2.54,0,0,1,1.19-2.26,7.17,7.17,0,0,1,2.07-1,7.63,7.63,0,0,1,.86-1.62.72.72,0,0,1,.56-.19c.32,0,.69.16.69.4a.75.75,0,0,1-.14.42,10.69,10.69,0,0,0-.6,1,3.07,3.07,0,0,1,1.86,1.59,1.77,1.77,0,0,1,.23.9c0,1.54-1.55,3.17-2.94,3.7a21.46,21.46,0,0,1,.36,3.29,7.06,7.06,0,0,1-1,3.71Zm6-9.11.16-.46a1.55,1.55,0,0,1,.56-.73l.05,0a2.31,2.31,0,0,1,1.3-.51.74.74,0,0,1,.46.14l.05,0a.84.84,0,0,1,.25.7,3.7,3.7,0,0,1-.18,1,2,2,0,0,1-.44.54l0,0h0a2.09,2.09,0,0,1-1.36.42,3.9,3.9,0,0,1-1-.13,8.65,8.65,0,0,1,.17-1Zm1.84-2.94a2.93,2.93,0,0,0-2,.69c-.89.9-1.19,2.5-1.19,4.23a25.31,25.31,0,0,0,1.31,7.51.7.7,0,0,0,.13.21h0a.74.74,0,0,0,.43.13.78.78,0,0,0,.48-.15h0a.48.48,0,0,0,.13-.32.71.71,0,0,0,0-.19h0a19,19,0,0,1-1.31-7,4.84,4.84,0,0,0,1.13.14,3,3,0,0,0,2-.67h0a3.17,3.17,0,0,0,.38-.45,3.93,3.93,0,0,0,.68-2.15,2,2,0,0,0-.53-1.46,1.82,1.82,0,0,0-1.15-.47c-.15,0-.31,0-.49,0Zm6.18.8a.45.45,0,0,1,.33.39.41.41,0,0,1,0,.06h0a1.38,1.38,0,0,1-1.43.93,1.92,1.92,0,0,1-.39,0h0l-.21,0a4.43,4.43,0,0,1,.32-.51,2.05,2.05,0,0,1,1.3-.81Zm-.43,3.26a2.37,2.37,0,0,1-1-.18.79.79,0,0,1-.52-.72,2.52,2.52,0,0,0,.86.15,2.71,2.71,0,0,0,2.58-1.59,1.76,1.76,0,0,0,.12-.61c0-.85-.76-1.22-1.63-1.22a3.34,3.34,0,0,0-1.21.23,3,3,0,0,0-1.83,2.81,2.75,2.75,0,0,0,.24,1.14,2.24,2.24,0,0,0,2.19,1.24,5,5,0,0,0,2.64-.83.71.71,0,0,0,.33-.61.55.55,0,0,0-.51-.59.63.63,0,0,0-.35.13,3.67,3.67,0,0,1-1.93.62Zm8.71-2.92a.55.55,0,0,0-.57-.5h0c-.14,0-.46,0-.52.28a7.93,7.93,0,0,1-1.28,3.07,1.64,1.64,0,0,1-1.25.81h0c-.4,0-.51-.27-.51-.71a3.87,3.87,0,0,1,0-.51v-.08c0-.4-.46-.42-.57-.42h0c-.2,0-.49.42-.49.42s0,.22,0,.32v.18a1.82,1.82,0,0,0,.7,1.53,1.28,1.28,0,0,0,.85.28,2.26,2.26,0,0,0,1.28-.42,5,5,0,0,0,1.42-1.75,1.5,1.5,0,0,0,1.61,1.3h.09l.11,0c1,0,1.41-.72,1.82-1.52a4.88,4.88,0,0,0,.6,1.64.57.57,0,0,0,.47.28.6.6,0,0,0,.61-.56.65.65,0,0,0-.11-.31h0a3.23,3.23,0,0,1-.59-2.13c0-.39.11-.86.11-1.27a.49.49,0,0,0-.51-.46.48.48,0,0,0-.45.26c-.57,1-.82,2.38-1.65,3.17a.67.67,0,0,1-.4.23c-.68,0-.77-1.31-.77-2.27,0-.26.09-.66.09-.85Zm6.29-.06a4.48,4.48,0,0,0-.64,2.1,2.33,2.33,0,0,0,.74,1.69,2.23,2.23,0,0,0,1.61.62,3.17,3.17,0,0,0,2.3-1,2.83,2.83,0,0,0,.8-1.89,2.76,2.76,0,0,0-.68-1.77,2,2,0,0,0-1.08-.72s0-.13,0-.15h0a.59.59,0,0,0,0-.11.63.63,0,0,0-.41-.63,1.19,1.19,0,0,0-.33,0h-.23a.47.47,0,0,0-.43.48s0,.09,0,.12a.35.35,0,0,1,0,0h0s0,.08,0,.19a2.5,2.5,0,0,0-1.56.84l0,0v0l-.06.12,0,0Zm1.2.08a.79.79,0,0,1,.4-.27c0,.36-.08.83-.1.92h0a.3.3,0,0,0,0,0c0,.38.43.48.66.48a.66.66,0,0,0,.21,0h0c.27-.11.34-.83.43-1.31a1.27,1.27,0,0,1,.36.2,1.6,1.6,0,0,1,.47,1.2,2,2,0,0,1-.53,1.23,1.65,1.65,0,0,1-1.26.63,1.79,1.79,0,0,1-1.07-.46,1,1,0,0,1-.22-.75,3.77,3.77,0,0,1,.5-1.68l0,0,0,0h0l0-.06a.4.4,0,0,0,0-.08Zm9.47-.64a4.15,4.15,0,0,0,.83-1.56,2.21,2.21,0,0,0,0-.47,1.61,1.61,0,0,0-1.39-1.75h-.26c-2.61,0-3.72,2.92-3.72,4.91,0,.11,0,.25,0,.37.1,1.38,1.56,3.37,3.31,3.37a2.21,2.21,0,0,0,1.27-.43,2.26,2.26,0,0,0,.79-1.95,3.5,3.5,0,0,0-.89-2.48Zm-3.26,1.05v-.19a4.15,4.15,0,0,1,1.68-3.32,1.79,1.79,0,0,1,.68-.26c.28,0,.54.33.54.71a1.32,1.32,0,0,1-.15.59,8.3,8.3,0,0,1-2.6,2.47.75.75,0,0,0-.14.12v-.12Zm.47.82a.52.52,0,0,0,.35-.12,16.37,16.37,0,0,0,1.45-1.07,1.11,1.11,0,0,0,.24-.09,5.74,5.74,0,0,1,.43,1.91c0,.66-.33,1.12-.83,1.12a2,2,0,0,1-.33,0,2.44,2.44,0,0,1-1.65-1.82.6.6,0,0,0,.34.11Zm5.5-1.32a4.48,4.48,0,0,0-.64,2.1,2.33,2.33,0,0,0,.74,1.69,2.23,2.23,0,0,0,1.61.62,3.17,3.17,0,0,0,2.3-1,2.83,2.83,0,0,0,.8-1.89,2.76,2.76,0,0,0-.68-1.77,2,2,0,0,0-1.08-.72s0-.13,0-.15h0a.59.59,0,0,0,0-.11.63.63,0,0,0-.41-.63,1.19,1.19,0,0,0-.33,0h-.23a.47.47,0,0,0-.43.48s0,.09,0,.12a.3.3,0,0,1,0,0h0s0,.08,0,.19a2.5,2.5,0,0,0-1.56.84l0,0v0l-.06.12,0,0Zm1.2.08a.79.79,0,0,1,.4-.27c0,.36-.08.83-.1.92h0a.34.34,0,0,0,0,0c0,.38.43.48.66.48a.66.66,0,0,0,.21,0h0c.27-.11.34-.83.43-1.31a1.27,1.27,0,0,1,.36.2,1.6,1.6,0,0,1,.47,1.2,2,2,0,0,1-.53,1.23,1.66,1.66,0,0,1-1.26.63,1.79,1.79,0,0,1-1.07-.46,1,1,0,0,1-.22-.75,3.77,3.77,0,0,1,.5-1.68l0,0,0,0h0l0-.06A.38.38,0,0,0,309.28,120.31Z" fill="#512c00" fill-rule="evenodd"/><path d="M317.49,117.1s0-.09,0-.16a.47.47,0,0,0-.47-.48c-.48,0-.66.75-.66,1.17,0,.67.48,1.19,1.41,1.24a.32.32,0,0,0,.13,0,2.16,2.16,0,0,0,1.84-1.1.47.47,0,0,0,.13-.3.58.58,0,0,0-.59-.54.5.5,0,0,0-.42.22,1.91,1.91,0,0,1-.9.67l-.21,0c-.2,0-.34-.19-.34-.49,0-.05,0-.26,0-.28ZM315,119.25a.45.45,0,0,0-.49.43c0,.69-.33,1.87-.33,2.85s.25,1.9,1.3,2h0l.31,0H316c1,0,1.45-.44,2.09-1.41.09-.16.17-.31.26-.45a2,2,0,0,0,2.15,1.83,3.9,3.9,0,0,0,.82-.09.52.52,0,0,0,.39-.54.59.59,0,0,0-.52-.62l-.1,0h-.39c-1,0-1.28-.53-1.28-1.39,0-.38.19-.85.19-1.37a.69.69,0,0,0-.7-.6.79.79,0,0,0-.66.44c-.53.91-1.19,3-2.18,3h-.18a.61.61,0,0,1-.21,0c-.3-.13-.43-.32-.43-.77,0-.82.43-2,.43-2.67v-.13a.71.71,0,0,0-.73-.58Z" fill="#512c00" fill-rule="evenodd"/><path d="M88.61,98c0-.28.23-1.55.51-1.54s.88.25.87.53c0,.07-.86,24.7,19.34,27.34,20.62,2.7,62.56,1.37,62.68,1.37H327.46a.51.51,0,0,1,0,1H172c-.62,0-42.24,1.32-62.82-1.37C88.06,122.55,88.61,98.05,88.61,98Z" fill="#512c00" fill-rule="evenodd"/><path d="M83.39,99.24c0-.28-.36-2.8-.63-2.79s-2,4.68-2,5C78,136.21,3.59,122.35,3.59,122.35S83.62,142.21,83.39,99.24Z" fill="#512c00" fill-rule="evenodd"/></g></g></svg>