<svg xmlns="http://www.w3.org/2000/svg" viewBox="0 0 112.38 102.48"><defs><style>.cls-1,.cls-2{fill:#fff;}.cls-1{opacity:0;}.cls-2,.cls-3,.cls-4,.cls-5{fill-rule:evenodd;}.cls-3{fill:#7db928;}.cls-4{fill:#567c1d;}.cls-5{fill:#281300;}</style></defs><title>Ресурс 3</title><g id="Слой_2" data-name="Слой 2"><g id="_1" data-name="1"><rect class="cls-1" width="112.38" height="102.48"/><path class="cls-2" d="M7.19,18.83l15.52,6.79s1.7-6.36,5-8.1c7.83-4.07,15.6,5.26,8.66,11.29-3.47,3-6.65,2.73-11,2.87V45.34c22.83-.66,8.91,25.11-7.16,7.26L14,70.4c38.95,19,51.88-18.87,34.53-30.34,2.29-3.68,9.78-7.63,7.83-20.58C52.56-5.68,12.59-5.52,7.19,18.83Z"/><path class="cls-3" d="M28.11,84.92c.86,8.61,8.45,16.45,35.07,16.15s18.6-33.3,8.33-26.34A26.68,26.68,0,0,1,43.8,76C37.27,72.31,25.57,59.52,28.11,84.92Z"/><path class="cls-4" d="M59,75.42c12.5,0,22.69-4.7,22.69-10.47S71.46,54.48,59,54.48,36.27,59.19,36.27,65,46.46,75.42,59,75.42Z"/><path class="cls-5" d="M56,62.85c-10-.11-8.78,4.17-2.29,5,7.15,1,19,1,18.92-4.6a3.85,3.85,0,0,0-.68-2h0c-1.09-1.64-3.4-3-6.52-3.87a35.58,35.58,0,0,0-11.32-1.06c-1.25.06-2.62.18-4.05.35-4.13.51-8.7,1.53-12.16,3.45s-5.66,4.57-5.46,8.48q0,.32.06.7A5.83,5.83,0,0,0,33,71c1.42,3.27,5.78,5.61,11.3,7a53.49,53.49,0,0,0,18.49,1,35.29,35.29,0,0,0,9.59-2.41C79.44,73.44,82.12,73.94,83,76c1.65,3.8-1.33,13.7-3.5,16.44a6,6,0,0,1-1.74,1.58,2,2,0,0,1-2,.1,3.12,3.12,0,0,1-1.35-1.81c-1.35-3.7-1.25-6.17-2-2-2.42,17-6.68-5.39-8.28,2-1.46,6.7-7.51,9.59-6.25-1.12a16.6,16.6,0,0,0,.21-4.27,31.69,31.69,0,0,0-.72,3.82c-1.61,10.5-7.22,9.18-8.71,2.12-.64-3.06-1-.85-2.3.54-2,2.13-5.25,4.3-6.06-1.82-.91-17.2-.55-2.9-2.47,0-.59.89-1.48.93-3-.11h0C29,87.57,31.94,80.62,30.14,75.76a14.69,14.69,0,0,0-.61,4.2l0,.48c-.23,5.62-.53,12.81,16,17.29,15.74,4.27,25.61,1.55,39.08-7-9.12,11.8-27,12.94-39.5,9.55C27.67,95.5,27.53,88,27.78,82a27.57,27.57,0,0,1,1.39-6.93,1.21,1.21,0,0,1,.84-.77C34,73.68,31.75,84.61,35.51,88c0,0,1.13.9,1.44.44.43-.65.87-6.32,1.13-7.68,4.26-8.84,2.92,19.48,9.07,7.55,1.57-5.57,3-2.76,3.82,1.24,3.25,13.9,4.31-9.84,7.82-6.32.86.86,1.63,3.17,1.35,5.59.4,10.81,2.33-2.27,3.67-2.7a1.51,1.51,0,0,1,2.22.4c1.53,2.8,4.3,10.34,4.71.2.19-3.4,1-4.67,1.69-4.63s2,1.79,2.71,4c4.08,13,8.9-4.82,6.84-9.56-.64-1.47-2.9-1.65-9.17,1.07a36.43,36.43,0,0,1-9.9,2.5,54.69,54.69,0,0,1-18.91-1c-5.85-1.44-10.51-4-12.08-7.64a7,7,0,0,1-.53-1.93c0-.25-.05-.51-.07-.78-.23-4.44,2.33-7.48,6.05-9.54s8.33-3.07,12.58-3.59c1.44-.18,2.84-.29,4.14-.36a36.74,36.74,0,0,1,11.69,1.11c3.39,1,5.92,2.47,7.17,4.34h0a5,5,0,0,1,.87,2.56,4.46,4.46,0,0,1-.62,2.45A6.76,6.76,0,0,1,71,67.89h0c-8.59,5.72-34.94,1.58-25.54-4.37,1.57-1,6.38-2,10.54-.67ZM30.18,75.45h0Z"/></g></g></svg>