<svg xmlns="http://www.w3.org/2000/svg" viewBox="0 0 112.38 102.48"><defs><style>.cls-1,.cls-2{fill:#fff;}.cls-1{opacity:0;}.cls-2,.cls-3,.cls-4,.cls-5{fill-rule:evenodd;}.cls-3{fill:#ffe900;}.cls-4{fill:#7db928;}.cls-5{fill:#281300;}</style></defs><title>Ресурс 4</title><g id="Слой_2" data-name="Слой 2"><g id="_1" data-name="1"><rect class="cls-1" width="112.38" height="102.48"/><path class="cls-2" d="M45.87,31.28V48.79H27.12c2.67-3.07,16.05-16.36,18.76-17.51ZM11.54,47.53l8.11,14.63,26.19.1.1,10.3,15.42.22.08-10.55h3.85c.59-.49,4.23-11.91,4.59-13.41l-8.47,0L61.33,0C53.36,7.2,11.54,47.53,11.54,47.53Z"/><path class="cls-3" d="M40.12,61.11l12.16-.66a3.43,3.43,0,0,1,3.65,3.46V79.14A3.91,3.91,0,0,1,52.28,83l-12.16.66a3.43,3.43,0,0,1-3.65-3.46V65A3.91,3.91,0,0,1,40.12,61.11Z"/><path class="cls-4" d="M59.9,77.86,59.36,70a2.2,2.2,0,0,1,2.21-2.38l8-.06A2.56,2.56,0,0,1,72.1,69.9l.55,7.87a2.2,2.2,0,0,1-2.21,2.38l-8,.06A2.56,2.56,0,0,1,59.9,77.86Z"/><path class="cls-4" d="M41.7,85.3l27.55-.89a3.89,3.89,0,0,1,3.93,3.48l.92,10a3.37,3.37,0,0,1-3.27,3.71l-27.55.89A3.89,3.89,0,0,1,39.35,99l-.92-10A3.37,3.37,0,0,1,41.7,85.3Z"/><path class="cls-5" d="M42.44,66H57.28c0,.34,0,2.75,0,3.3s0,1.12,0,1.68-.07,1.11.53,1.12.54-.63.54-1.16c0-.86,0-4.39,0-4.94H73.73l.2,15.78H59.27c0-.77.08-4.95-.06-5.22s-1.64-.36-1.78.06c-.07.22,0,4.22,0,4.65s0,1.07,0,1.6,0,1,.56,1c1,0,2.12,0,3.13,0h6.25c.06.66,0,5.67,0,6.77,0,.65-.19,1.7.52,1.72s.55-1.1.55-1.76c0-2.11-.07-4.75,0-6.73h6.39v13.7L53.4,96.4c-.05-.37,0-7.52,0-8.61,0-.47,0-.87-.52-.88s-.55.41-.55.88V96.4l-9.9-.45,0-11H48c.57,0,1.3.1,1.28-.54s-.78-.51-1.36-.51H42.42q0-9,0-17.92ZM39.76,98.34c0,.32.27.46.62.47,2.37,0,6.67,0,9.06,0,8.55,0,17.13,0,25.67,0,.41,0,.64,0,.75-.36s0-23.12,0-24.52c0-.58,0-9.88,0-10.22-.07-.65-.88-.48-1.69-.48h-15c-5.7,0-13.31,0-16.65,0s-2.82,2.23-2.82,3.09v29.9C39.76,96.82,39.7,97.76,39.76,98.34Z"/><path class="cls-5" d="M74.23,83.84c0-.36.6-1.71.6-2.07A68.36,68.36,0,0,1,86,83.27,88.35,88.35,0,0,1,74.23,83.84Z"/></g></g></svg>