<svg xmlns="http://www.w3.org/2000/svg" viewBox="0 0 112.38 102.48"><defs><style>.cls-1,.cls-2{fill:#fff;}.cls-1{opacity:0;}.cls-2,.cls-3,.cls-4{fill-rule:evenodd;}.cls-3{fill:#7db928;}.cls-4{fill:#281300;}</style></defs><title>Ресурс 6</title><g id="Слой_2" data-name="Слой 2"><g id="_1" data-name="1"><rect class="cls-1" width="112.38" height="102.48"/><path class="cls-2" d="M30.65,40.2C43.57,37,48,57.46,35.59,60.6,22.26,64,17.35,43.53,30.65,40.2ZM32.08,27c2-4.62,9.27-10.85,12.5-14.49C41.67,7.88,32.66,1.4,32.66,1.4c-8.6,5.82-21.35,23.42-25,33.35C-8.58,79.41,50.54,91.63,58.88,57.32,63.45,38.52,51.46,24.51,32.08,27Z"/><path class="cls-3" d="M35.75,64.65S21.24,64,23.81,76.19s5.38,8.19,11.7,9.83,3.93,6.08,13.11-3.51S42.65,57.94,35.75,64.65Z"/><path class="cls-3" d="M86.81,73.44S87.49,56.83,75,58.38s-10,5-9.64,8.07-4.48,4-1.3,12.09C70.87,95.85,96.21,82.75,86.81,73.44Z"/><path class="cls-3" d="M41.4,68.48c4.32,6.59,7.28,13.06,15.81,10.59s19-12.09,13.6-19.69-7-2-14.47-8.16S35.78,59.92,41.4,68.48Z"/><path class="cls-4" d="M46.06,86.69c-11,11.44-15.62-1.9-16.33-3.73a9.09,9.09,0,0,1-4.41-7.9,10.52,10.52,0,0,1,.81-4.15,9,9,0,0,1,2.38-3.34,7.46,7.46,0,0,1,7.36-1.38,10.35,10.35,0,0,1,3.48-2C41,56.23,49,50.68,57,53.07c4.31-1.58,13,0,14.3,6.45C81.7,58.82,86.38,67.77,83,75.61,90,84.69,80.47,93.46,69.83,88c-5.85-2.85-7.93-10.17.24-8.38a12.34,12.34,0,0,0-3.78-2.1,21.66,21.66,0,0,1-5.07,4,4.66,4.66,0,0,0-2,3.54C57.86,94,68.08,99.78,75.91,99.88c-8.94.72-19.29-4.92-17.8-15a5.71,5.71,0,0,1,2.58-4.33,11.77,11.77,0,0,0,3.55-3.71,13.81,13.81,0,0,0-2.94-.46,6.74,6.74,0,0,1-.53.76A8.56,8.56,0,0,1,58.67,79a6,6,0,0,1-6.18.4,22.45,22.45,0,0,0-4.11,4.38,7.23,7.23,0,0,1,5.12,4.84,7.49,7.49,0,0,1,0,4,10.12,10.12,0,0,1-2,3.85c-2.8,3.35-8,5.66-14.87,4.21,9.25,2,21-10.72,9.48-13.94Zm-1.17-.37c-2.09-.34-6.06-1.78-6.75-4-2.81-9-7.59-7.9-7.59-7.9C36.07,70.59,40.8,70.86,45.23,77c.66.92,2.07,3,4.93.51a14.34,14.34,0,0,1-1.41-1.84c-1.52-.17-8.87-1.33-9.59-8.11a10.56,10.56,0,0,1,0-2.15,9.74,9.74,0,0,0-2.8,1.82l-.24.22-.3-.1a6.47,6.47,0,0,0-6.59,1.07,7.91,7.91,0,0,0-2.09,2.94,9.43,9.43,0,0,0-.73,3.72,8,8,0,0,0,4,7.06l.17.1.07.19s4.42,13.94,14.21,3.92Zm1.61-3,.75.14.08-.12a24.66,24.66,0,0,1,4.17-4.59c-.19-.14-.38-.3-.57-.47a5.39,5.39,0,0,1-.47.53c-2.7,2.67-4.21,2.36-5.59,1a14.57,14.57,0,0,1-1.34-1.69c-1.34-1.85-2.58-3.66-6.11-3.63C42.72,79,38.25,82,46.5,83.3Zm4.21-6.84a7.44,7.44,0,0,0-.54-5.59,11.67,11.67,0,0,0-2.08-3.08,10.08,10.08,0,0,0-3-2.2A7.2,7.2,0,0,0,40.3,65a9.63,9.63,0,0,0-.06,2.41c.7,6.63,8.84,7.15,8.86,7.16l.27,0,.15.23a13.57,13.57,0,0,0,1.18,1.62Zm.45-6a8.21,8.21,0,0,1,.37,6.9,7.46,7.46,0,0,0,.89.7,13.7,13.7,0,0,1,8.23-2.84A1.53,1.53,0,0,0,60.7,75c0-.05.2,0,.13-.06A9.52,9.52,0,0,1,58.21,74a3.57,3.57,0,0,1-1.6.14,4.87,4.87,0,0,1-2.31-1,7.1,7.1,0,0,1-2.53-4,21.87,21.87,0,0,1-.26-4.57c0-1.85.05-3.33-.74-3.79L47.91,59l3.22.64s5.24,1,4.61,7.12A6.28,6.28,0,0,0,56.8,71.4a5.71,5.71,0,0,0,1.49,1.37l.25-.15a6.88,6.88,0,0,0,2.34-3.8c.84-2.67,1.42-6.76,7.45-8.89-.94-4.88-7-5.5-11.3-4.37l-.15,0-.15,0c-6.73-2.11-13.84.79-16,7.78q-.08.26-.15.52a8.32,8.32,0,0,1,5.05.75A11.16,11.16,0,0,1,48.88,67a12.76,12.76,0,0,1,2.28,3.37Zm10.61,4.8a15.13,15.13,0,0,1,3.09.58,30.74,30.74,0,0,0,2.8-6.36A20.75,20.75,0,0,0,68.75,62a8.18,8.18,0,0,0-1.09.27c-2.53.83-4.53,3-5.75,6.85a8.3,8.3,0,0,1-2.53,4.2,8.68,8.68,0,0,0,1.66.51c.65.13.87.63.73,1.34v0ZM67,76.61c4,1.46,5.38,3.38,8.14,6.07l-2.73-1.2c-7.24-2.93-6.83,1.32-.64,4.34,5.64,2.75,13.82-1.61,8.7-9.6L80.37,76l.08-.24c2.07-6.65-.66-14.44-8.53-13.93C72,68.4,69.11,74.72,67,76.61ZM60,76.34a12.79,12.79,0,0,0-6.43,2.25A5,5,0,0,0,58.09,78a7.44,7.44,0,0,0,1.82-1.63l.06-.07ZM56.75,73h.11a6.5,6.5,0,0,1-.94-1,7.32,7.32,0,0,1-1.27-5.36c.32-3.07-1.07-4.59-2.24-5.32a13.28,13.28,0,0,1,.17,3.12,21,21,0,0,0,.25,4.35A6,6,0,0,0,55,72.23,3.79,3.79,0,0,0,56.75,73Z"/></g></g></svg>