<svg xmlns="http://www.w3.org/2000/svg" viewBox="0 0 112.38 102.48"><defs><style>.cls-1,.cls-2{fill:#fff;}.cls-1{opacity:0;}.cls-2,.cls-3,.cls-4,.cls-5{fill-rule:evenodd;}.cls-3{fill:#ffe900;}.cls-4{fill:#7db928;}.cls-5{fill:#281300;}</style></defs><title>Ресурс 1</title><g id="Слой_2" data-name="Слой 2"><g id="_1" data-name="1"><rect class="cls-1" width="112.38" height="102.48"/><path class="cls-2" d="M9,24.83c.7,2.86,5.59,10.63,8,12.86l10.55-8,.11,45.68,16.68-1.33V1.17Z"/><path class="cls-3" d="M38,77.71c.5,2,3.27,4.26,7.63.5S65.92,63.44,63.25,57.9,30.72,48.64,38,77.71Z"/><path class="cls-4" d="M68.1,62.33s-5.86-.32-6.75,6.39,5.59,4.19-2.85,10.19-4.12,6.88-10,3S36.76,95.71,50.32,94.7,81.49,66.44,68.1,62.33Z"/><path class="cls-5" d="M29.51,101.31s4.8-2.65,15.22-4.79a5.9,5.9,0,0,1,4.3.82c17.18,6.54,34.38-10,30.06-25.83C75.2,57.28,58.69,51.91,46.28,59.37c-7.59,4.56-10.37,11.16-10.13,17.2a18.42,18.42,0,0,0,1.69,7,15.94,15.94,0,0,0,4,5.36,12.26,12.26,0,0,0,2.05,1.44c0-.24-1.27-1.65-1.32-1.89-.37-1.69-.74-3.42,1.06-4.75,3.31-2.44,5.58-3.07,8.94-.27,1.42,1.18,1.57.78,3-1,.28-.33.61-.75.93-1.16a22.22,22.22,0,0,1,2.28-2.59,19.13,19.13,0,0,1,2.12-1.6,11.42,11.42,0,0,0,1.7-1.3c.61-.64,2.21-1,.94-2.24-3.2-3.08-3.32-5.25-1.54-7.83.22-.32.45-.66.67-1,1.09-1.67,3.38-3.37,6.94-1.89,7.75,5.05,1.11,13.66-3.23,19a35.43,35.43,0,0,1-13.28,10,10.61,10.61,0,0,1-8,.32,2.72,2.72,0,0,1-.94,1.46,28.76,28.76,0,0,1-9.59,4.13s6.53-3.08,8.84-5a1.62,1.62,0,0,0,.56-1A13.28,13.28,0,0,1,41,89.84a17.12,17.12,0,0,1-4.26-5.76A19.6,19.6,0,0,1,35,76.61c-.25-6.43,2.68-13.43,10.7-18.25,35.85-18.47,54,34.92,16.31,42.47C54.5,102.37,48.72,99.66,45.63,99s-16.12,2.31-16.12,2.31ZM45.12,91a9.49,9.49,0,0,0,7.47-.16,34.25,34.25,0,0,0,12.84-9.71c4.25-5.21,6-10.47,5.62-12.7-.24-1.51-.52-2.13-1.55-2.81a3.77,3.77,0,0,0-1.13-.5A2.74,2.74,0,0,0,67.28,65c-1.86.29-5.2,3.86-2.16,6.78a4,4,0,0,1,.38,5.53,12.11,12.11,0,0,1-1.88,1.46,18.48,18.48,0,0,0-2,1.49,21.71,21.71,0,0,0-2.14,2.46c-.3.37-.6.75-.95,1.17-1.86,2.23-4.38,3.61-6.59,1.77a4,4,0,0,0-3.24-1.08,7,7,0,0,0-3.26,1.68c-1.19.88-.89,2.24-.61,3.56A6.92,6.92,0,0,1,45.12,91Z"/></g></g></svg>