<svg xmlns="http://www.w3.org/2000/svg" viewBox="0 0 112.38 102.48"><defs><style>.cls-1,.cls-2{fill:#fff;}.cls-1{opacity:0;}.cls-2,.cls-3,.cls-5,.cls-6{fill-rule:evenodd;}.cls-3,.cls-4{fill:#ffe900;}.cls-5{fill:#7db928;}.cls-6{fill:#281300;}</style></defs><title>Ресурс 2</title><g id="Слой_2" data-name="Слой 2"><g id="_1" data-name="1"><rect class="cls-1" width="112.38" height="102.48"/><path class="cls-2" d="M14.29,6.4l.16,36.36c6.16-2.32,7.26-4.71,15.3-4.31,5.34.26,10.39,2.79,11.64,8.18,2.79,12.08-11.11,18.28-20.21,6.46C19,54.33,9.72,62.53,8.78,64.27c10.81,15.94,36.94,15,47.35-1.6,5-8,4.79-19.84-.33-27.74-6.32-9.77-14.44-10.58-25.21-10.45v-6.6l23.11-.14L58.8,2c-9.39-.8-33.93-.28-44.5-.27Z"/><path class="cls-3" d="M38.63,99.45c6.87,0,12.48-1.15,12.48-2.56s-5.61-2.56-12.48-2.56-12.48,1.15-12.48,2.56S31.76,99.45,38.63,99.45Z"/><path class="cls-3" d="M42.68,100.93c4.42,0,8-.73,8-1.62s-3.61-1.62-8-1.62-8,.73-8,1.62S38.26,100.93,42.68,100.93Z"/><ellipse class="cls-4" cx="43.29" cy="94.03" rx="4.21" ry="3.99"/><path class="cls-5" d="M71.94,53.83C67,56.12,35.15,81.67,44.89,89S109.5,36.36,71.94,53.83Z"/><path class="cls-6" d="M45.31,85.64l-2,6.11,0,0S42.48,93.74,45.5,93c3.59-.84,7.76-3.28,8.51-3.43L78.8,65.19c-2-1.16-4.27-1.74-7.25.94C67.23,70,48.21,88.7,48.15,88.75L47.38,88c.05-.05,19.07-18.75,23.43-22.66,3.7-3.32,6.34-2.4,8.79-.93L81,63c-2.64-3.47-6.52-7.76-6.74-8l-.36-.34.31-.4a8.93,8.93,0,0,1,4.62-3.46c1.8-.43,3.77.09,5.84,2.2,4.09,4.16-.68,8.57-1,8.88l-1.18,1.19.5.7a12,12,0,0,1,1.35,2.32c.39,1,.18,1.64-.87,1.55A6.93,6.93,0,0,1,80.9,66.5L80.16,66l-.4-.25L55.6,92.32l-.16,0s-7.69,2.54-11.76,3.5C38.88,97,40,93.63,40.22,93.17l2.61-9.67c38-36.51,41-34.92,2.48,2.14ZM81.77,62.2l1.08-1.08,0,0s4.41-3.83,1-7.3c-1.76-1.79-3.36-2.25-4.8-1.9a7.46,7.46,0,0,0-3.72,2.7c1,1.14,4.15,4.65,6.42,7.61Zm-.12,1.68L80.56,65l.2.13.73.46a6.31,6.31,0,0,0,2,1c.17,0-.25,0-.26-.06A11,11,0,0,0,82,64.41Z"/></g></g></svg>