<svg xmlns="http://www.w3.org/2000/svg" viewBox="0 0 112.38 102.48"><defs><style>.cls-1,.cls-2{fill:#fff;}.cls-1{opacity:0;}.cls-2,.cls-3,.cls-6{fill-rule:evenodd;}.cls-3{fill:#7db928;}.cls-4,.cls-6{fill:#281300;}.cls-5{fill:#ffe900;}</style></defs><title>Ресурс 2</title><g id="Слой_2" data-name="Слой 2"><g id="_1" data-name="1"><rect class="cls-1" width="112.38" height="102.48"/><path class="cls-2" d="M21.15,45.68,31.77,33.45c-21-15.45,25.54-25.36,7.55,6-7,12.2-24.95,32.89-26.1,34.93l43.18.12,6.12-15.34L44.63,59c6.94-8.61,14.55-17.47,16-28.84C62.26,17.6,55.94,5.74,43.41,2.3,11.2-6.55-3.73,33,21.15,45.68Z"/><path class="cls-3" d="M75.25,67c-26.71-25-53.79,17.53-25.19,13.8,9.17,0,7.32,6.52.92,7.14-3.28.32-5.07,8.29,6,8.29,28.36,0,30.3-18,18.28-29.24ZM45.64,77.84c-2.27,1.08-1.3-9,12.44-9s13,2.81,15.14,6.49-7.9,1.08-13.84.87S45.64,77.84,45.64,77.84Z"/><rect class="cls-4" x="50.36" y="81.69" width="10.85" height="3.77" rx="1.89" ry="1.89"/><circle class="cls-5" cx="39.84" cy="83.66" r="4.74"/><path class="cls-6" d="M31.19,66.1c.24-2.9,1-5.07,2.48-6.58S37.26,57.16,40.2,57a9,9,0,0,1,4-4.13,9.21,9.21,0,0,1,5.71-.46,6.43,6.43,0,0,1,1.6-1h0a12.35,12.35,0,0,1,5.49-1,7.48,7.48,0,0,1,4.79,1.59,3.41,3.41,0,0,1,.47.56,10.94,10.94,0,0,1,6.16.6,7.28,7.28,0,0,1,3.86,3.74A15.86,15.86,0,0,1,76,57a7.47,7.47,0,0,1,4.14,2A6.75,6.75,0,0,1,82,63.34a13.41,13.41,0,0,1-.19,3.25c3.25,3.43,4.15,6.22,1,10.16,1.9-3.67.33-7.16-2-9.57L80.52,67l.05-.29a12.62,12.62,0,0,0,.22-3.25,5.63,5.63,0,0,0-1.45-3.59,6.34,6.34,0,0,0-3.51-1.71A15.26,15.26,0,0,0,71.92,58l-.43,0-.16-.41a6.14,6.14,0,0,0-3.41-3.49A9.89,9.89,0,0,0,62,53.67l-.45.1-.2-.42a2.08,2.08,0,0,0-.45-.61,6.37,6.37,0,0,0-4-1.28,11.16,11.16,0,0,0-5,.91,5,5,0,0,0-1.49,1l-.22.23-.31-.06a8.36,8.36,0,0,0-5.29.32,8.11,8.11,0,0,0-3.57,3.9l-.15.3-.33,0c-2.8.15-4.78.87-6.09,2.22s-2,3.39-2.18,6.17l0,.31L32,67c-5.87,3.29-1.86,8.63-1.85,8.65C27.19,73.73,26,69.17,31.19,66.1Z"/><path class="cls-6" d="M44.66,62.51c4.32-2,10.55-2.07,20.81-1.39,5.87.41,7.25,4.8,8.52,8.84.75,2.38,1.46,4.62,3,5.61s4.36,5.55,5.64,10.76c.87,3.53,1,7.35-.34,10.56-1.2,2.79-2.87,4.06-4.53,4.4-2.7.56-6.61-1.86-6.05-4.67.19-1-1-1.6-3-2-4.15-.83-11.37-.55-17.64-.31a86.35,86.35,0,0,1-10.48.06c-.59-.07-.79,0-.8.05a3.51,3.51,0,0,0,.19,1,5,5,0,0,1,.23,2.46,5.08,5.08,0,0,1-1.8,2.58,4.79,4.79,0,0,1-1.58.83,3.63,3.63,0,0,1-1.88.06,4.61,4.61,0,0,1-2.55-1.78c-3.75-4.81-2.67-11.76.11-16.73,8.4-15,17,1.41,11.83,5.47-3.48,2.72-9.52-1-6.45-4-1.48,3,2.49,3.37,4.69,1.66,2.76-2.86-2.27-10-7.46-2.45-2.59,4.63-3.62,8.92-1.06,12.56,2.66,2.68,3.32-.52,3.64-3.2.1-.8.61-1.25,2.09-1.07C49.51,93,57.7,91.23,69,93.48c2.71.54,5.12,1.22,4.76,3s1.94,4,3.86,3.65c1.32-.27,2.67-1.34,3.7-3.73,1.27-2.95,1.1-6.52.28-9.83-1.21-4.94-5.77-9.23-7.1-10.06-2-1.21-2.85-3.66-3.66-6.25-1.16-3.67-.32-5.34-5.4-5.7-10.06-.67-16.14-.62-20.24,1.29S38.92,69.22,36.59,76C37.56,67.7,41.37,64,44.66,62.51Z"/><circle class="cls-5" cx="71.33" cy="83.2" r="4.28"/></g></g></svg>