<svg xmlns="http://www.w3.org/2000/svg" viewBox="0 0 12 12"><g><g><rect width="12" height="12" opacity="0"/><path d="M.53,4.37A3.29,3.29,0,0,1,.95,2.78,3.48,3.48,0,0,1,1.51,2,3.38,3.38,0,0,1,2,1.59a3.93,3.93,0,0,1,.44-.28l.16-.08A4.46,4.46,0,0,1,3.69.88a4.54,4.54,0,0,1,1.78,0,4.18,4.18,0,0,1,1.79.81l.13.11a3.23,3.23,0,0,1,.3.28l.06.06a3.81,3.81,0,0,1,.48.7,3.23,3.23,0,0,1,.38,1.52,3.09,3.09,0,0,1-.3,1.33,3.15,3.15,0,0,1-.25.43,3,3,0,0,1-.3.38,2.2,2.2,0,0,1-.2.2l-.07.07A4.14,4.14,0,0,1,7,7.12a4.59,4.59,0,0,1-2.54.7l-.39,0-.36,0-.12,0c-.15,0-.08-.05-.39.13l-.07,0a7.52,7.52,0,0,1-.83.37,6.74,6.74,0,0,1-.66.22,2.91,2.91,0,0,1-.76.12l-.15,0h0l.3-.18a1.88,1.88,0,0,0,.6-.72,1.71,1.71,0,0,0,.15-.51c0-.21.05-.11-.1-.26l-.13-.12-.12-.12L1.4,6.59l-.06-.07a3.56,3.56,0,0,1-.57-.92A3.31,3.31,0,0,1,.53,4.37ZM0,4.36A3.78,3.78,0,0,0,.67,6.5l.05.07A3.07,3.07,0,0,0,1,6.85l0,0,.16.16.06.07s.07.05.07.07a.79.79,0,0,1-.13.37L1,7.75a1.49,1.49,0,0,1-.58.44.72.72,0,0,0-.31.19A.41.41,0,0,0,.25,9a1.31,1.31,0,0,0,.68.12,3.64,3.64,0,0,0,1-.16,6.19,6.19,0,0,0,.64-.22L3,8.54c.16-.08.32-.15.48-.25s0,0,.21,0a2.73,2.73,0,0,0,.38,0l.42,0,.51,0a5.07,5.07,0,0,0,.9-.16,4.72,4.72,0,0,0,1.23-.52l.76-.58a1.77,1.77,0,0,0,.14-.13l.19-.21.06-.07a5,5,0,0,0,.38-.57l.09-.17a3.66,3.66,0,0,0,.27-2.27c0-.07,0-.15-.05-.22a5.55,5.55,0,0,0-.21-.6l-.09-.18a3.19,3.19,0,0,0-.19-.34c-.07-.11-.15-.21-.23-.31L8.14,1.8a3.71,3.71,0,0,0-.45-.43l-.22-.18A4.32,4.32,0,0,0,6.81.79L6.44.62A5.06,5.06,0,0,0,4,.29a3.94,3.94,0,0,0-.47.07,5.8,5.8,0,0,0-.83.25,4.63,4.63,0,0,0-1,.57,3.4,3.4,0,0,0-.37.3c-.07.07-.14.13-.21.2l0,0L1,1.79l0,0L.86,2l-.11.15A4.34,4.34,0,0,0,.26,3a4,4,0,0,0-.14.41,3.55,3.55,0,0,0-.13,1ZM9.48,5.53a.85.85,0,0,1,.17.07,4,4,0,0,1,.48.25l.07,0,.07,0a2.83,2.83,0,0,1,1,1.08,2,2,0,0,1,.22.86V8.1a2.05,2.05,0,0,1-.13.6,2.43,2.43,0,0,1-.42.72l-.09.1-.06.06a2.76,2.76,0,0,1-.25.23l-.13.1c-.18.13-.16.07-.08.33a1.43,1.43,0,0,0,.61.75l.25.15s.07,0,.08.06h-.17a3.57,3.57,0,0,1-.86-.08l-.28-.08a2.15,2.15,0,0,1-.81-.44l-.22-.23c-.05-.07-.07,0-.15,0A5.39,5.39,0,0,1,6,10.11a4.11,4.11,0,0,1-.63-.31l-.19-.12a2.26,2.26,0,0,1-.34-.28l-.22-.25a1.9,1.9,0,0,1-.18-.28L4,8.84l-.15,0a1.33,1.33,0,0,0,.11.26,2.9,2.9,0,0,0,.89,1l.23.15.25.14a5.05,5.05,0,0,0,1.42.47l.33,0c.11,0,.23,0,.35,0H8a4.66,4.66,0,0,0,.65,0c.08,0,.09,0,.15.09l.06.05.13.1L9,11.2a3.11,3.11,0,0,0,.72.34l.09,0a3.39,3.39,0,0,0,1,.16c.34,0,.95,0,1.11-.35s-.12-.47-.33-.58l-.26-.14-.09-.05a1.42,1.42,0,0,1-.37-.31l-.06-.08a1.09,1.09,0,0,1,.14-.13,4.52,4.52,0,0,0,.42-.47l0,0,.16-.25A3.13,3.13,0,0,0,11.79,9l0-.1a2.28,2.28,0,0,0,.16-.8C12,8,12,8,12,8a3,3,0,0,0,0-.38,2.83,2.83,0,0,0-.11-.44,2.73,2.73,0,0,0-.26-.55l-.05-.09c-.1-.16-.19-.25-.3-.39S11.16,6,11.11,6a1.88,1.88,0,0,0-.21-.2,5.06,5.06,0,0,0-.64-.45A3.79,3.79,0,0,0,9.59,5a2.09,2.09,0,0,1-.08.39l0,.13ZM2.35,4.42s0,0,0,0H6.76s0,0,0,0V3.91H2.35v.51Zm0-1.28H6.78V2.61H2.35v.53Zm0,2.6H5.48V5.22H2.35v.53ZM6.29,8.61H9.65V8.08H7.48s-.38.2-.42.22L7,8.33l-.37.16-.32.11Zm2.15-1.3H9.65V6.78H8.89s0,0-.06.06-.27.34-.33.4S8.45,7.28,8.44,7.31Z" fill-rule="evenodd"/></g></g></svg>