<svg xmlns="http://www.w3.org/2000/svg" viewBox="0 0 12 12"><g><g><path d="M.38,0H12V12H0V0ZM11.25.75H.75V11.24H11.25V.75ZM4.13,2.12a2,2,0,0,0-2,2V7.87a2,2,0,0,0,2,2H7.86a2,2,0,0,0,2-2V4.13a2,2,0,0,0-2-2Zm3.73.75H4.13A1.27,1.27,0,0,0,2.87,4.13V7.87A1.27,1.27,0,0,0,4.13,9.13H7.86A1.27,1.27,0,0,0,9.12,7.87V4.13A1.27,1.27,0,0,0,7.86,2.87ZM6,4.07a1.92,1.92,0,1,0,1.36.56A1.92,1.92,0,0,0,6,4.07Zm.83,1.1A1.17,1.17,0,1,0,7.17,6a1.17,1.17,0,0,0-.34-.83ZM8,3.5a.44.44,0,1,0,.44.44A.44.44,0,0,0,8,3.5Z" fill-rule="evenodd"/></g></g></svg>