<svg xmlns="http://www.w3.org/2000/svg" viewBox="0 0 12 12"><g><g><rect width="12" height="12" opacity="0"/><path d="M6,2.8a1.83,1.83,0,1,1-1.3.54A1.83,1.83,0,0,1,6,2.8Zm.7,1.13a1,1,0,1,0,.29.7,1,1,0,0,0-.29-.7ZM5.44.83a4,4,0,0,0-2.69,1.8A4.48,4.48,0,0,0,2.4,6.29a9.4,9.4,0,0,0,2.66,4.06c.19.17.42.35.6.52s.4.27.7,0A14.77,14.77,0,0,0,7.52,9.78c1.58-1.72,2.81-4,2.09-6.41A3.6,3.6,0,0,0,8.75,2,3.89,3.89,0,0,0,5.44.83Zm-4,4.52a8.48,8.48,0,0,0,.23,1.1A10.46,10.46,0,0,0,5.57,11.8c.34.27.52.28.86,0s.49-.36.73-.58a9.84,9.84,0,0,0,3.21-4.77,5.16,5.16,0,0,0-.5-4.32A4.72,4.72,0,0,0,6.62,0,4.62,4.62,0,0,0,2.73,1.38,4.83,4.83,0,0,0,1.4,5.35Z" fill-rule="evenodd"/></g></g></svg>