<svg xmlns="http://www.w3.org/2000/svg" viewBox="0 0 12 12"><g><g><rect width="12" height="12" opacity="0"/><path d="M10.47,3.87c.1-.26-.24-.54-.54-.37L8.65,4.61l-.13.12L8,5.21c-.31.3-.62.53-.82.74s-.38.31-.57.49C6,7,6.06,7,5.69,6.69L2.63,4c-.26-.23-.68-.72-1-.47a.38.38,0,0,0-.14.35A19.1,19.1,0,0,0,3.15,5.39l2.22,2c.71.58.54.59,1.25,0,.2-.16.35-.34.55-.51a6.85,6.85,0,0,0,.56-.5c.18-.17.37-.31.55-.48L10,4.4a3.54,3.54,0,0,0,.5-.52Zm-9.12-2h9.29a1.37,1.37,0,0,1,1,.39,1.3,1.3,0,0,1,.4.93V8.76a1.3,1.3,0,0,1-.4.93,1.37,1.37,0,0,1-1,.39H1.35a1.37,1.37,0,0,1-1-.39A1.3,1.3,0,0,1,0,8.76V3.24a1.3,1.3,0,0,1,.4-.93,1.37,1.37,0,0,1,1-.39Zm9.29.73a.61.61,0,0,1,.43.17.58.58,0,0,1,.18.42V8.76a.58.58,0,0,1-.18.42.61.61,0,0,1-.43.17H1.35a.61.61,0,0,1-.43-.17.58.58,0,0,1-.18-.42V3.24a.58.58,0,0,1,.18-.42.61.61,0,0,1,.43-.17Z" fill-rule="evenodd"/></g></g></svg>