<svg xmlns="http://www.w3.org/2000/svg" viewBox="0 0 12 12"><g><g><rect width="12" height="12" opacity="0"/><path d="M1.06,3.09c0-.06.7-.7.8-.8l.6-.6a1.81,1.81,0,0,1,.2-.19c0,.39,0,1,0,1.46,0,.14-.11.14-.25.14Zm-.44.63c.09,0,1.14,0,1.33,0,.48,0,.82.06,1.1-.22s.22-.64.22-1.12c0-.29,0-1.09,0-1.32.24,0,.67,0,.93,0H7.91c.4,0,.39.15.39.52s0,.61,0,.92-.06.63.19.74a.32.32,0,0,0,.35-.08c.09-.1.07-.24.07-.39s0-.61,0-.92A2.38,2.38,0,0,0,8.85,1,.91.91,0,0,0,8.4.52,2.14,2.14,0,0,0,7.54.44H4.78A15.52,15.52,0,0,0,3,.48a1.19,1.19,0,0,0-.54.38C1.81,1.48,1.17,2.1.57,2.71l-.35.35A1.28,1.28,0,0,0,0,4c0,.31,0,.61,0,.92v5.54a1,1,0,0,0,.19.74c.36.46.91.34,1.52.34H7.27a2.32,2.32,0,0,0,1.24-.14.79.79,0,0,0,.23-.22,1,1,0,0,0,.18-.75c0-.3,0-.64,0-.94a.31.31,0,0,0-.52-.2c-.11.1-.09.21-.09.38s0,.3,0,.45,0,.31,0,.47a.3.3,0,0,1-.15.3,4.31,4.31,0,0,1-.9,0H6.33c-.57,0-5.42,0-5.53,0s-.19-.43-.19-.74c0-1.53,0-3.1,0-4.62,0-.3,0-1.64,0-1.84Zm4.56,6a3.9,3.9,0,0,1,.38-1.19A4.19,4.19,0,0,1,6,7.83a1.86,1.86,0,0,1,.18-.2L7.75,6.06l.4-.39.39-.4c.13-.13.68-.7.78-.78s.27-.27.39-.39l.39-.39a.74.74,0,0,1,.52-.27.72.72,0,0,1,.77.79.77.77,0,0,1-.09.31,10.67,10.67,0,0,1-1,1L8.79,7.1,8,7.89c-.26.26-.51.53-.77.78A4,4,0,0,1,5.17,9.74Zm6-4.17.32.32a.83.83,0,0,1,.28.38c.12.42-.18.61-.41.86s-.46.46-.66.67l-.65.67c-.08.08-.23.27-.35.31a.31.31,0,0,1-.39-.24c0-.21.21-.41.39-.59l.17-.16.32-.34c.17-.17.91-.9,1-1A4.16,4.16,0,0,0,10.75,6c-.08,0-.55.55-.68.68-.65.63-1.41,1.4-2,2a6,6,0,0,1-1,.86,4.64,4.64,0,0,1-1.22.6,3,3,0,0,1-.75.16A.57.57,0,0,1,4.57,10a3.1,3.1,0,0,1,.31-1.44,4.76,4.76,0,0,1,.7-1.13l.1-.12c.1-.13,1.54-1.56,1.69-1.72l.46-.45L9.65,3.28a1.35,1.35,0,0,1,.53-.37A1.37,1.37,0,0,1,11,2.85a1.35,1.35,0,0,1,1,1.66c-.14.57-.71.9-.77,1.06ZM2,4.77a5.13,5.13,0,0,1,.7,0H6.32c.27,0,.43,0,.53.18a.3.3,0,0,1-.21.43c-.13,0-4,0-4.28,0s-.45,0-.53-.18A.3.3,0,0,1,2,4.77Zm0,1.53c.11,0,1.77,0,1.92,0a3.22,3.22,0,0,1,.91,0,.31.31,0,0,1-.1.56c-.09,0-2.17,0-2.42,0a.86.86,0,0,1-.43,0,.3.3,0,0,1,.12-.56ZM4.64,3.24c.14,0,1.64,0,2,0,.15,0,.23,0,.31.1a.3.3,0,0,1-.13.5c-.1,0-1.72,0-2,0-.56,0-.46-.51-.18-.6ZM1.8,8.18a.33.33,0,0,1,.09-.28.4.4,0,0,1,.29-.08H3.66a.76.76,0,0,1,.34,0,.31.31,0,0,1,.16.23.31.31,0,0,1-.1.28.43.43,0,0,1-.29.08H2.29c-.18,0-.43,0-.49-.26Zm0,1.53a.31.31,0,0,1,.3-.36c.27,0,1,0,1.32,0,.17,0,.38,0,.41.26a.31.31,0,0,1-.3.36c-.33,0-1,0-1.32,0S1.84,9.92,1.8,9.71Z" fill-rule="evenodd"/></g></g></svg>