<svg xmlns="http://www.w3.org/2000/svg" viewBox="0 0 12 11.43"><g data-name="Слой 2"><g data-name="1"><path d="M.65,5.52a4.11,4.11,0,0,1,.48-2.19A4.48,4.48,0,0,1,2.37,1.86,5.81,5.81,0,0,1,6.49.66a5.59,5.59,0,0,1,3.68,1.69,4.08,4.08,0,0,1,1,4A4.76,4.76,0,0,1,8.62,9.2a6.11,6.11,0,0,1-3.93.43c-.67-.18-.38.17-1.18.69-.15.1-.77.44-.92.39s.1-.33.13-.39a4.28,4.28,0,0,0,.17-.51A4.11,4.11,0,0,0,3,9.23c0-.24,0-.31-.24-.42A4.51,4.51,0,0,1,.65,5.52ZM2.2,11.43a2.93,2.93,0,0,0,.71-.13,3.63,3.63,0,0,0,1.43-.84c.17-.19.22-.21.49-.15a6.56,6.56,0,0,0,4.86-1,4.8,4.8,0,0,0,.42-7.92A6.46,6.46,0,0,0,5.45,0,6.23,6.23,0,0,0,1.31,2,4.76,4.76,0,0,0,.2,6.54,5.16,5.16,0,0,0,2.13,9.15c.34.23.05.75-.08,1.07s-.54.77-.37,1a.52.52,0,0,0,.44.18ZM4.27,4.28H5c.06-.67.17-1,.77-1.13A.78.78,0,0,1,6.8,4c0,.45-.56.77-.82,1.11a1.75,1.75,0,0,0-.48,1.45,4.39,4.39,0,0,0,.76,0c.06-.19,0-.36.07-.59a4.34,4.34,0,0,1,.92-1.06A1.4,1.4,0,0,0,7.27,3a1.74,1.74,0,0,0-3,1.3ZM5.51,7.9H6.3V7h-.4c-.1,0-.34,0-.39,0A4.48,4.48,0,0,0,5.51,7.9Z" fill-rule="evenodd"/></g></g></svg>